<svg xmlns="http://www.w3.org/2000/svg" xml:space="preserve" version="1.0" viewBox="9 9 82 82">
    <svg xmlns="http://www.w3.org/2000/svg" xmlns:xlink="http://www.w3.org/1999/xlink" width="100" height="100"
        shape-rendering="crispEdges" viewBox="0 0 2000 2000">
        <path fill="#fff" d="M0 0h2000v2000H0z" />
        <path
            d="M800 173h57v57h-57zm57 0h57v57h-57zm57 0h57v57h-57zm114 0h57v57h-57zm114 0h57v57h-57zm57 0h57v57h-57zm-513 57h57v57h-57zm57 0h57v57h-57zm171 0h57v57h-57zm57 0h57v57h-57zm171 0h57v57h-57zm114 0h57v57h-57zm-399 57h57v57h-57zm57 0h57v57h-57zm171 0h57v57h-57zm114 0h57v57h-57zm57 0h57v57h-57zm-627 57h57v57h-57zm228 0h57v57h-57zm285 0h57v57h-57zm171 0h57v57h-57zm-684 57h57v57h-57zm57 0h57v57h-57zm285 0h57v57h-57zm114 0h57v57h-57zm-285 57h57v57h-57zm57 0h57v57h-57zm57 0h57v57h-57zm57 0h57v57h-57zm171 0h57v57h-57zm114 0h57v57h-57zm-627 57h57v57h-57zm114 0h57v57h-57zm114 0h57v57h-57zm114 0h57v57h-57zm114 0h57v57h-57zm114 0h57v57h-57zm114 0h57v57h-57zm-570 57h57v57h-57zm57 0h57v57h-57zm114 0h57v57h-57zm114 0h57v57h-57zm57 0h57v57h-57zm57 0h57v57h-57zm57 0h57v57h-57zm57 0h57v57h-57zm57 0h57v57h-57zM173 629h57v57h-57zm57 0h57v57h-57zm228 0h57v57h-57zm57 0h57v57h-57zm57 0h57v57h-57zm114 0h57v57h-57zm114 0h57v57h-57zm57 0h57v57h-57zm57 0h57v57h-57zm57 0h57v57h-57zm57 0h57v57h-57zm57 0h57v57h-57zm114 0h57v57h-57zm114 0h57v57h-57zm228 0h57v57h-57zm57 0h57v57h-57zM230 686h57v57h-57zm57 0h57v57h-57zm114 0h57v57h-57zm57 0h57v57h-57zm114 0h57v57h-57zm57 0h57v57h-57zm57 0h57v57h-57zm171 0h57v57h-57zm399 0h57v57h-57zm57 0h57v57h-57zm57 0h57v57h-57zm114 0h57v57h-57zm114 0h57v57h-57zm57 0h57v57h-57zm114 0h57v57h-57zM173 743h57v57h-57zm114 0h57v57h-57zm171 0h57v57h-57zm57 0h57v57h-57zm57 0h57v57h-57zm171 0h57v57h-57zm114 0h57v57h-57zm57 0h57v57h-57zm57 0h57v57h-57zm57 0h57v57h-57zm114 0h57v57h-57zm228 0h57v57h-57zm228 0h57v57h-57zm57 0h57v57h-57zM173 800h57v57h-57zm228 0h57v57h-57zm57 0h57v57h-57zm228 0h57v57h-57zm171 0h57v57h-57zm57 0h57v57h-57zm114 0h57v57h-57zm57 0h57v57h-57zm171 0h57v57h-57zm57 0h57v57h-57zm114 0h57v57h-57zm57 0h57v57h-57zm57 0h57v57h-57zm57 0h57v57h-57zm114 0h57v57h-57zm57 0h57v57h-57zM173 857h57v57h-57zm57 0h57v57h-57zm57 0h57v57h-57zm114 0h57v57h-57zm114 0h57v57h-57zm171 0h57v57h-57zm114 0h57v57h-57zm228 0h57v57h-57zm57 0h57v57h-57zm57 0h57v57h-57zm114 0h57v57h-57zm228 0h57v57h-57zm114 0h57v57h-57zm57 0h57v57h-57zm114 0h57v57h-57zM344 914h57v57h-57zm228 0h57v57h-57zm228 0h57v57h-57zm399 0h57v57h-57zm171 0h57v57h-57zm114 0h57v57h-57zm57 0h57v57h-57zm57 0h57v57h-57zM287 971h57v57h-57zm114 0h57v57h-57zm114 0h57v57h-57zm57 0h57v57h-57zm57 0h57v57h-57zm114 0h57v57h-57zm57 0h57v57h-57zm57 0h57v57h-57zm57 0h57v57h-57zm57 0h57v57h-57zm171 0h57v57h-57zm114 0h57v57h-57zm228 0h57v57h-57zm114 0h57v57h-57zm57 0h57v57h-57zm57 0h57v57h-57zm57 0h57v57h-57zm-1539 57h57v57h-57zm57 0h57v57h-57zm57 0h57v57h-57zm57 0h57v57h-57zm57 0h57v57h-57zm228 0h57v57h-57zm114 0h57v57h-57zm57 0h57v57h-57zm57 0h57v57h-57zm114 0h57v57h-57zm114 0h57v57h-57zm57 0h57v57h-57zm57 0h57v57h-57zm228 0h57v57h-57zm57 0h57v57h-57zm114 0h57v57h-57zm-1482 57h57v57h-57zm171 0h57v57h-57zm171 0h57v57h-57zm114 0h57v57h-57zm399 0h57v57h-57zm57 0h57v57h-57zm114 0h57v57h-57zm228 0h57v57h-57zm57 0h57v57h-57zm57 0h57v57h-57zm-1368 57h57v57h-57zm57 0h57v57h-57zm171 0h57v57h-57zm57 0h57v57h-57zm228 0h57v57h-57zm57 0h57v57h-57zm57 0h57v57h-57zm57 0h57v57h-57zm114 0h57v57h-57zm57 0h57v57h-57zm57 0h57v57h-57zm114 0h57v57h-57zm57 0h57v57h-57zm171 0h57v57h-57zm171 0h57v57h-57zm171 0h57v57h-57zm-1596 57h57v57h-57zm57 0h57v57h-57zm57 0h57v57h-57zm114 0h57v57h-57zm57 0h57v57h-57zm57 0h57v57h-57zm114 0h57v57h-57zm57 0h57v57h-57zm114 0h57v57h-57zm171 0h57v57h-57zm114 0h57v57h-57zm171 0h57v57h-57zm171 0h57v57h-57zm-1254 57h57v57h-57zm114 0h57v57h-57zm57 0h57v57h-57zm57 0h57v57h-57zm57 0h57v57h-57zm171 0h57v57h-57zm114 0h57v57h-57zm57 0h57v57h-57zm114 0h57v57h-57zm114 0h57v57h-57zm228 0h57v57h-57zm57 0h57v57h-57zm114 0h57v57h-57zm57 0h57v57h-57zm57 0h57v57h-57zm228 0h57v57h-57zm-1596 57h57v57h-57zm114 0h57v57h-57zm57 0h57v57h-57zm57 0h57v57h-57zm57 0h57v57h-57zm57 0h57v57h-57zm114 0h57v57h-57zm342 0h57v57h-57zm57 0h57v57h-57zm57 0h57v57h-57zm228 0h57v57h-57zm57 0h57v57h-57zm57 0h57v57h-57zm57 0h57v57h-57zm57 0h57v57h-57zm57 0h57v57h-57zm57 0h57v57h-57zm57 0h57v57h-57zm-1083 57h57v57h-57zm114 0h57v57h-57zm285 0h57v57h-57zm285 0h57v57h-57zm228 0h57v57h-57zm114 0h57v57h-57zm114 0h57v57h-57zm-1140 57h57v57h-57zm57 0h57v57h-57zm171 0h57v57h-57zm57 0h57v57h-57zm57 0h57v57h-57zm171 0h57v57h-57zm171 0h57v57h-57zm114 0h57v57h-57zm114 0h57v57h-57zm57 0h57v57h-57zm57 0h57v57h-57zm-1026 57h57v57h-57zm171 0h57v57h-57zm171 0h57v57h-57zm57 0h57v57h-57zm57 0h57v57h-57zm114 0h57v57h-57zm57 0h57v57h-57zm57 0h57v57h-57zm228 0h57v57h-57zm114 0h57v57h-57zm114 0h57v57h-57zm-1026 57h57v57h-57zm57 0h57v57h-57zm57 0h57v57h-57zm57 0h57v57h-57zm114 0h57v57h-57zm171 0h57v57h-57zm57 0h57v57h-57zm57 0h57v57h-57zm57 0h57v57h-57zm57 0h57v57h-57zm57 0h57v57h-57zm57 0h57v57h-57zm57 0h57v57h-57zm114 0h57v57h-57zm-969 57h57v57h-57zm114 0h57v57h-57zm342 0h57v57h-57zm114 0h57v57h-57zm114 0h57v57h-57zm57 0h57v57h-57zm228 0h57v57h-57zm-1026 57h57v57h-57zm114 0h57v57h-57zm114 0h57v57h-57zm57 0h57v57h-57zm171 0h57v57h-57zm57 0h57v57h-57zm57 0h57v57h-57zm228 0h57v57h-57zm171 0h57v57h-57zm57 0h57v57h-57zm-1083 57h57v57h-57zm57 0h57v57h-57zm114 0h57v57h-57zm171 0h57v57h-57zm57 0h57v57h-57zm114 0h57v57h-57zm57 0h57v57h-57zm57 0h57v57h-57zm57 0h57v57h-57zm57 0h57v57h-57zm57 0h57v57h-57zm171 0h57v57h-57zm114 0h57v57h-57zm-1083 57h57v57h-57zm114 0h57v57h-57zm285 0h57v57h-57zm114 0h57v57h-57zm114 0h57v57h-57zm114 0h57v57h-57zm57 0h57v57h-57zm114 0h57v57h-57zm57 0h57v57h-57zm57 0h57v57h-57z" />
        <svg xml:space="preserve" width="399" height="399" x="173" y="173" shape-rendering="auto"
            viewBox="0 0 699.988 699.986">
            <path d="M600.99 0H1v699.986h699.988V0H600.99zm0 199.996v399.992H100.999V99.998H600.99v99.998z" />
        </svg>
        <svg xml:space="preserve" width="399" height="399" x="173" y="173" shape-rendering="auto" version="1.0"
            viewBox="0 0 699.988 699.988">
            <path d="M399.994 199.997H199.998v299.994H499.99V199.997z" />
        </svg>
        <svg xml:space="preserve" width="399" height="399" x="1427" y="173" shape-rendering="auto"
            viewBox="0 0 699.988 699.986">
            <path d="M600.99 0H1v699.986h699.988V0H600.99zm0 199.996v399.992H100.999V99.998H600.99v99.998z" />
        </svg>
        <svg xml:space="preserve" width="399" height="399" x="1427" y="173" shape-rendering="auto" version="1.0"
            viewBox="0 0 699.988 699.988">
            <path d="M399.994 199.997H199.998v299.994H499.99V199.997z" />
        </svg>
        <svg xml:space="preserve" width="399" height="399" x="173" y="1427" shape-rendering="auto"
            viewBox="0 0 699.988 699.986">
            <path d="M600.99 0H1v699.986h699.988V0H600.99zm0 199.996v399.992H100.999V99.998H600.99v99.998z" />
        </svg>
        <svg xml:space="preserve" width="399" height="399" x="173" y="1427" shape-rendering="auto" version="1.0"
            viewBox="0 0 699.988 699.988">
            <path d="M399.994 199.997H199.998v299.994H499.99V199.997z" />
        </svg>
    </svg>
</svg>