<svg width="100" height="90.332" viewBox="0 0 100 90.332" xmlns="http://www.w3.org/2000/svg">
    <g id="svgGroup" stroke-linecap="round" fill-rule="evenodd" font-size="9pt" stroke="#000" stroke-width="1"
        fill="#000000" style="stroke:#000;stroke-width:1;fill:#000000">
        <path
            d="M 14.16 3.125 L 19.141 17.09 L 16.309 17.09 L 2.734 17.188 Q 0.098 17.285 0 17.285 L 0.391 18.848 L 3.223 26.758 L 22.559 26.953 L 25.781 35.84 A 388.262 388.262 0 0 1 25.896 36.209 Q 26.276 37.427 26.318 37.598 Q 26.367 37.791 24.264 37.841 A 46.728 46.728 0 0 1 24.219 37.842 Q 22.07 37.891 16.309 37.891 Q 11.581 37.891 9.319 37.924 A 101.36 101.36 0 0 0 8.447 37.939 A 36.354 36.354 0 0 0 7.997 37.953 Q 6.37 38.011 6.543 38.184 L 9.961 47.852 L 29.98 47.949 L 44.922 90.332 L 56.348 90.332 L 70.605 47.949 L 89.941 47.852 L 92.773 39.746 A 78.196 78.196 0 0 1 92.91 39.275 Q 93.182 38.342 93.262 38.184 A 0.038 0.038 0 0 0 93.266 38.167 Q 93.266 37.988 91.303 37.94 A 43.69 43.69 0 0 0 91.26 37.939 A 116.911 116.911 0 0 0 90.039 37.919 Q 88.334 37.897 85.462 37.892 A 1069.037 1069.037 0 0 0 83.594 37.891 Q 79.026 37.891 76.826 37.858 A 97.103 97.103 0 0 1 75.977 37.842 A 34.669 34.669 0 0 1 75.538 37.829 Q 73.983 37.772 74.114 37.605 A 0.086 0.086 0 0 1 74.121 37.598 L 77.734 26.855 L 87.109 26.855 Q 93.457 26.855 95.166 26.807 A 15.343 15.343 0 0 0 95.608 26.788 Q 96.813 26.719 96.688 26.479 A 0.151 0.151 0 0 0 96.68 26.465 L 100 17.188 L 83.789 17.188 A 3187.954 3187.954 0 0 0 83.17 17.165 Q 81.14 17.09 81.055 17.09 L 86.719 0.098 L 85.156 0.098 L 76.367 0 L 70.605 17.188 L 29.59 17.188 L 23.535 0 L 18.359 0 A 203.111 203.111 0 0 0 17.134 0.003 Q 14.679 0.018 13.965 0.098 A 5.707 5.707 0 0 0 13.758 0.124 Q 13.115 0.22 13.279 0.389 A 0.214 0.214 0 0 0 13.281 0.391 Q 13.379 0.684 14.16 3.125 Z M 66.699 28.906 L 63.672 37.891 L 36.816 37.793 L 33.105 27.051 A 0.482 0.482 0 0 1 33.227 27.027 Q 33.905 26.947 38.135 26.904 A 766.037 766.037 0 0 1 40.701 26.883 Q 44.644 26.856 49.847 26.856 A 2122.699 2122.699 0 0 1 50.195 26.855 Q 58.449 26.855 62.363 26.888 A 298.497 298.497 0 0 1 63.867 26.904 A 108.619 108.619 0 0 1 64.671 26.918 Q 67.295 26.973 67.295 27.129 A 0.028 0.028 0 0 1 67.285 27.148 A 1.445 1.445 0 0 0 67.235 27.269 Q 67.096 27.636 66.699 28.906 Z M 52.051 72.266 L 50.586 76.563 Q 50.488 76.465 49.121 72.754 L 40.332 47.852 L 60.254 47.852 L 55.469 62.109 A 2382.943 2382.943 0 0 1 54.486 65.051 Q 53.17 68.983 52.189 71.861 A 786.457 786.457 0 0 1 52.051 72.266 Z" />
    </g>
</svg>