<?xml version="1.0" encoding="utf-8"?>
<!DOCTYPE svg PUBLIC "-//W3C//DTD SVG 1.0//EN" "http://www.w3.org/TR/2001/REC-SVG-20010904/DTD/svg10.dtd">
<svg version="1.0" xmlns="http://www.w3.org/2000/svg" width="259px" height="375px" viewBox="0 0 259 375" preserveAspectRatio="xMidYMid meet">
 <g fill="#ffffff">
  <path d="M100 373.4 c-19.9 -2.4 -50.9 -13.5 -72 -26 -3.7 -2.2 -17 -11.9 -25.3 -18.5 l-2 -1.6 2.8 -16.9 c1.5 -9.3 3.1 -19.4 3.6 -22.4 0.4 -3 1.3 -8.4 1.9 -12 0.7 -3.6 1.6 -8.7 2 -11.5 0.4 -2.7 1.3 -7.7 1.8 -11 0.6 -3.3 2 -12.1 3.2 -19.5 2.2 -14.3 3.5 -20 5.4 -23.9 1.5 -3.3 7.6 -9.4 10.6 -10.8 6 -2.6 8.2 -3.3 10.2 -3.3 2.3 0 2.3 -2.7 -0.1 63.5 -2.8 74.1 -3.3 90.6 -2.8 91.1 0.5 0.5 4.7 -0.3 17.7 -3.6 1.9 -0.5 5.3 -1.3 7.5 -1.9 2.2 -0.5 6.7 -1.7 10 -2.6 28.5 -7.8 33.1 -8.7 43.5 -8.9 13.1 -0.1 16.1 1.3 20.4 9.7 l2.9 5.6 -1.7 4.6 c-2.3 5.8 -7.9 10.6 -18.6 15.7 -8.4 4.1 -13.5 5.1 -21 4.2z"/>
  <path d="M145 373.2 c0 -0.5 1.3 -2 2.8 -3.5 1.6 -1.5 3.9 -4.8 5.2 -7.3 1.9 -3.9 2.5 -4.5 4.4 -3.8 1.1 0.4 4.9 0.9 8.4 1.1 6.2 0.5 6.6 0.3 20.3 -6.6 7.7 -3.9 14.4 -7.1 15 -7.1 0.6 0 0.7 2 0.3 5.3 -1.3 9.6 -1.3 9.6 -9.4 12.8 -4.1 1.6 -8.1 2.9 -8.8 2.9 -0.7 0 -4.1 0.9 -7.5 1.9 -12.1 3.7 -30.7 6.3 -30.7 4.3z"/>
  <path d="M217.7 351.2 c-0.3 -0.4 -0.2 -3.9 0.2 -7.9 0.5 -5.9 1.2 -7.8 3.3 -10 4.3 -4.6 5.8 -8.7 5.8 -15.6 0 -6 -2.7 -20.4 -4.8 -25.8 -1 -2.4 -5.9 -7.2 -9.8 -9.5 -1.7 -1 -1.7 -1.6 -0.7 -7.5 0.7 -3.5 1.7 -10.2 2.4 -14.9 0.6 -4.7 1.5 -9.2 2 -10.1 0.5 -0.9 2.9 -2.3 5.5 -3 2.6 -0.8 6.6 -3.1 8.9 -5.1 2.4 -2.1 4.7 -3.8 5.2 -3.8 0.8 0 5.7 17.9 8.3 30 0.5 1.9 2 7.8 3.5 13 3.8 13.6 4.4 16 5.4 20.5 0.5 2.2 1.9 7.6 3 12 1.1 4.4 2.1 8.5 2.1 9.1 0 0.6 -3.5 4 -7.7 7.5 -4.3 3.5 -8 6.6 -8.3 7 -0.7 0.9 -17.3 11.5 -20.9 13.4 -1.7 0.8 -3.2 1.2 -3.4 0.7z"/>
  <path d="M162 343.3 c-1.4 -0.8 -5.8 -5.3 -9.7 -10 -8.2 -9.4 -8.4 -10.5 -6.2 -24.2 1.6 -10.5 1.8 -11.1 4.2 -12 2.7 -1.1 4.2 0 6.3 4.5 2.5 5.2 6 8.4 9.1 8.4 1.5 0 8 -1.9 14.3 -4.1 6.3 -2.2 12.4 -4.3 13.5 -4.6 1.1 -0.2 2.9 -0.8 4 -1.2 7 -2.7 9 -3.1 10.1 -1.8 1.5 1.5 4.7 19.8 3.8 22 -0.9 2.4 -4.2 4.4 -28.6 17.1 -8.1 4.2 -15.6 7.6 -16.5 7.6 -1 0 -2.9 -0.8 -4.3 -1.7z"/>
  <path d="M55 324.8 c0 -3.5 0.4 -14.4 1 -24.3 0.5 -9.9 1.7 -37.8 2.6 -62 1.5 -42.2 1.7 -44.1 3.6 -45.8 3.3 -2.8 3.2 -3.5 6.7 24.8 0.6 4.4 1.3 10.7 1.6 14 0.3 3.3 1 8.9 1.5 12.5 0.6 3.6 1.5 10.4 2.1 15.3 l1.1 8.7 40.3 0 c22.2 0 40.6 0.4 40.9 0.9 0.3 0.4 0.2 2.8 -0.2 5.1 -0.7 4.1 -1.1 4.5 -5.2 6 -14.4 5.1 -17.8 9.3 -20 25 -1.9 13.9 -0.9 12.6 -9.2 12.2 -7.3 -0.3 -20.4 2 -37.8 6.6 -4.1 1.1 -11.8 3.2 -17 4.6 -5.2 1.4 -10.1 2.6 -10.7 2.6 -0.9 0 -1.3 -1.9 -1.3 -6.2z"/>
  <path d="M170 289.7 c0 -1.3 0.7 -6.8 1.6 -12.3 0.8 -5.4 1.9 -12.8 2.4 -16.4 1.3 -10.2 3 -21.1 3.6 -23.6 0.5 -1.9 -0.6 -3.2 -6.9 -8.1 -10.2 -7.9 -11.2 -10 -9.6 -21.1 0.6 -4.8 1.4 -10.7 1.6 -13.2 0.6 -5.7 4.2 -10.5 9 -12 2.1 -0.7 4.3 -1.6 4.8 -2 0.6 -0.4 2.5 -1.1 4.3 -1.5 2.3 -0.5 3.2 -0.3 3.2 0.7 -0.1 1.4 -2.4 17.4 -3.5 24.5 -0.6 3.4 -0.4 4.4 1.1 5.7 1.1 0.8 3.8 3.1 6.2 5 l4.3 3.5 5.2 -2 c2.9 -1.2 6.1 -2.5 7.2 -2.9 2.2 -0.8 3.1 -4.4 5.7 -22.2 0.7 -4.9 1.5 -8.8 1.9 -8.8 0.3 0 3.6 2.3 7.2 5.1 8.5 6.5 9 8.2 7.2 21.2 -2.6 17.8 -2.5 17.6 -6.4 20.7 -1.9 1.7 -4.1 3 -4.7 3 -0.6 0 -3.7 1.1 -7 2.4 -6.5 2.7 -8.3 5.2 -8.4 11.8 0 2.1 -0.4 5.7 -1 8 -0.5 2.4 -1.5 8.4 -2.1 13.3 -2.1 16.7 -1.6 15.9 -11.7 19 -4.8 1.6 -9.1 3.2 -9.6 3.7 -0.6 0.4 -2 0.8 -3.3 0.8 -1.7 0 -2.3 -0.6 -2.3 -2.3z"/>
  <path d="M89.3 251.8 c-0.6 -0.7 -1.3 -4.2 -1.7 -7.8 -0.6 -6.7 -1.7 -16.4 -3.5 -31 -2.4 -19.2 -3 -27 -2.5 -28.4 0.3 -0.8 1.7 -1.7 3.2 -2.1 10 -2.3 22.2 -6.4 22.2 -7.4 0 -0.4 -2.8 -2 -6.2 -3.6 -10.2 -4.7 -19.2 -15.6 -22 -26.5 -2.5 -9.6 -3.8 -20.2 -3.6 -27.9 0.3 -7.9 0.5 -8.6 2.3 -8.3 31.3 3.9 67.3 3.9 101 -0.1 1.9 -0.2 2 0.3 1.8 11.8 -0.2 14 -1.5 21.6 -5.4 30.3 -4.9 10.9 -13 18.7 -23.1 22.3 -4.2 1.5 -4.8 2.8 -1.9 4.6 1.8 1.2 1.9 1.5 0.5 4.2 -0.8 1.7 -2 5.9 -2.5 9.3 -0.5 3.5 -1.4 8.2 -1.9 10.6 -0.6 2.3 -1 8.1 -1 12.8 0 11.7 0.8 13.2 14.1 25.6 1.5 1.4 1.7 2.6 1.2 6.5 -0.3 2.7 -1.1 5.1 -1.7 5.5 -0.6 0.4 -16.2 0.8 -34.7 0.8 -25.7 0 -33.9 -0.3 -34.6 -1.2z"/>
  <path d="M100 95.3 c-24.5 -1.8 -47.3 -6.2 -50.2 -9.7 -4.1 -5 -2.9 -11.1 2.6 -14.1 2.7 -1.4 4 -1.6 7.9 -0.7 2.6 0.5 4.9 0.7 5.1 0.3 0.2 -0.3 1.6 -4.2 3 -8.5 1.5 -4.4 3.5 -9.1 4.4 -10.5 4.3 -6.3 4.7 -8 2.9 -11 -3.9 -6.7 -0.4 -14.1 6.8 -14.1 2 0 4.7 0.7 6 1.6 2.8 1.8 4.9 1.4 11.4 -2.6 3.8 -2.2 11.4 -5.2 16.7 -6.5 0.6 -0.2 1.4 -3.6 1.7 -7.7 0.5 -6.4 0.9 -7.6 3.4 -9.5 3.8 -3.1 8.4 -3 11.6 0.3 2.4 2.4 3.1 4.8 3.9 13.8 0.3 2.6 0.9 3 7.6 5.1 4.1 1.3 9 3.4 11 4.8 5.5 3.6 7.9 4.1 10.7 2.3 3.7 -2.4 9.1 -2 12 0.9 2.9 2.8 3.3 8 1 11.1 -2 2.7 -1.9 3.9 1.2 8.7 1.5 2.3 4.1 8.3 5.9 13.2 3.1 8.8 3.2 9 6 8.5 9 -1.4 13.6 0.4 14.7 5.9 1.4 7 -3.2 11.7 -13.3 13.2 -2.5 0.4 -8.8 1.4 -14 2.3 -19.1 3.1 -58.1 4.5 -80 2.9z"/>
 </g>
</svg>