<?xml version="1.0" encoding="utf-8"?>
<!DOCTYPE svg PUBLIC "-//W3C//DTD SVG 1.0//EN" "http://www.w3.org/TR/2001/REC-SVG-20010904/DTD/svg10.dtd">
<svg version="1.0" xmlns="http://www.w3.org/2000/svg" width="236px" height="234px" viewBox="0 0 236 234" preserveAspectRatio="xMidYMid meet">
 <g fill="#ffd301">
  <path d="M1.5 232.8 c-0.3 -0.7 -0.4 -36.6 -0.3 -79.8 l0.3 -78.5 22.5 0 22.5 0 0.3 78.9 c0.2 62.5 0 79.1 -1 79.8 -0.7 0.4 -10.9 0.8 -22.6 0.8 -16.1 0 -21.4 -0.3 -21.7 -1.2z m32.5 -47.7 c0 -5.8 -0.5 -6.1 -10 -6.1 -9.5 0 -10 0.3 -10 6.1 l0 4.9 10 0 10 0 0 -4.9z m-0.2 -25.8 l0.3 -5.3 -10 0 -10.1 0 0 4.8 c0 2.7 0.3 5.2 0.7 5.6 0.4 0.4 4.8 0.5 9.8 0.4 l9 -0.3 0.3 -5.2z m-0.3 -25.8 l0 -5 -9.5 0 -9.5 0 -0.3 3.9 c-0.6 6.6 -0.3 6.7 10 6.4 l9.3 -0.3 0 -5z m0 -26 l0 -5 -9.5 0 -9.5 0 -0.3 3.9 c-0.6 6.6 -0.3 6.7 10 6.4 l9.3 -0.3 0 -5z"/>
  <path d="M62.6 232.5 c-1.5 -1.5 -1.6 -10.3 -1.4 -93.3 l0.3 -91.7 56.8 -0.3 56.7 -0.2 0 93 0 93 -2.2 0.5 c-1.3 0.3 -7.7 0.4 -14.3 0.3 l-12 -0.3 -0.5 -26.5 -0.5 -26.4 -5.9 -3.3 c-9.5 -5.4 -9.6 -5.3 -9.6 8.2 l0 11.5 -11.5 0 -11.5 0 0 -10.7 c0 -6 -0.4 -11.3 -0.8 -12 -0.6 -0.9 -2.8 -0.3 -8.2 2.5 l-7.5 3.7 -0.2 26.5 -0.2 26.5 -13 0.3 c-10.8 0.2 -13.2 0 -14.5 -1.3z m45.4 -85.9 c0 -4 -0.4 -5.5 -1.6 -6 -0.9 -0.3 -6.5 -0.6 -12.5 -0.6 l-10.9 0 0 6 0 6 12.5 0 12.5 0 0 -5.4z m45.8 -0.3 l-0.3 -5.8 -11.4 -0.3 c-12.7 -0.3 -14.1 0.2 -14.1 5.3 0 6.5 0 6.5 13.7 6.5 l12.4 0 -0.3 -5.7z m-47 -20.5 c0.7 -0.7 1.2 -3.4 1.2 -6 0 -5.8 -0.4 -6 -14.5 -5.6 l-10 0.3 -0.3 4.9 c-0.5 7.7 -0.6 7.6 11.6 7.6 7.1 0 11.2 -0.4 12 -1.2z m46.7 -5.3 l0 -6 -11.5 -0.3 c-9.9 -0.2 -11.6 0 -12.7 1.5 -1.6 2.1 -1.7 6.7 -0.2 9.4 0.9 1.8 1.9 1.9 12.7 1.7 l11.7 -0.3 0 -6z m-47.1 -20.1 c2.3 -0.9 2.3 -10.9 0 -11.8 -0.9 -0.3 -5.8 -0.6 -10.9 -0.6 -5.1 0 -10 0.3 -10.9 0.6 -1.2 0.5 -1.6 2 -1.6 5.8 0 2.9 0.3 5.6 0.7 5.9 0.8 0.9 20.6 0.9 22.7 0.1z m47.1 -5.9 l0 -6 -11.5 -0.3 c-9.9 -0.2 -11.6 0 -12.7 1.5 -1.6 2.1 -1.7 6.7 -0.2 9.4 0.9 1.8 1.9 1.9 12.7 1.7 l11.7 -0.3 0 -6z m-45.7 -24.8 c0.5 -7.2 -0.4 -7.7 -11.8 -7.7 -5.4 0 -10.5 0.3 -11.4 0.6 -1.2 0.5 -1.6 2 -1.6 5.8 0 2.9 0.3 5.6 0.7 6 0.4 0.3 5.9 0.5 12.2 0.4 l11.6 -0.3 0.3 -4.8z m46 0.9 c0.7 -8.4 0.5 -8.6 -11.4 -8.6 -12.5 0 -14.4 0.7 -14.4 5.6 0 7.1 0.7 7.5 13.8 7.2 l11.7 -0.3 0.3 -3.9z"/>
  <path d="M106.9 233.6 c-0.2 -0.2 -0.2 -5.3 0.1 -11.3 l0.5 -10.8 11 0 11 0 0.5 10.7 c0.4 8.4 0.2 10.9 -0.8 11.3 -1.6 0.6 -21.7 0.7 -22.3 0.1z"/>
  <path d="M189.5 231.8 c-0.3 -1.3 -0.4 -28.2 -0.3 -59.8 l0.3 -57.5 22.5 0 22.5 0 0.3 58.9 c0.2 46.5 0 59.1 -1 59.8 -0.7 0.4 -10.9 0.8 -22.5 0.8 -21.2 0 -21.3 0 -21.8 -2.2z m28.3 -21.7 c0.9 -0.5 1.2 -2.6 1 -6.7 l-0.3 -5.9 -5.5 -0.3 c-6.3 -0.4 -8 1 -8 6.6 0 5.7 1.4 7.2 6.8 7.2 2.6 0 5.3 -0.4 6 -0.9z m-0.4 -35.4 c1.3 -1 1.7 -2.4 1.4 -6.7 l-0.3 -5.5 -5.9 -0.3 c-4.1 -0.2 -6.2 0.1 -6.7 1 -1.5 2.2 -1 9.5 0.7 11.2 1.9 1.9 8.3 2.1 10.8 0.3z m1.1 -41.2 l0 -6 -5.9 -0.3 c-6.5 -0.3 -7.6 0.4 -7.6 5.3 0 7 0.7 7.6 7.4 7.3 l6.1 -0.3 0 -6z"/>
  <path d="M190.1 99.6 c-0.7 -0.8 -1.1 -3.4 -0.9 -5.8 l0.3 -4.3 14.9 -0.3 c16.3 -0.3 16.6 -0.2 16.6 5.5 0 6.4 0.2 6.3 -15.5 6.3 -11.1 0 -14.5 -0.3 -15.4 -1.4z"/>
  <path d="M189.4 73.7 c-0.3 -0.8 -0.4 -3.4 -0.2 -5.8 l0.3 -4.4 6.5 0 6.5 0 0 5.5 0 5.5 -6.3 0.3 c-4.7 0.2 -6.4 -0.1 -6.8 -1.1z"/>
  <path d="M27 56.5 l0 -5.6 9.8 0.3 9.7 0.3 0 5 0 5 -9.7 0.3 -9.8 0.3 0 -5.6z"/>
  <path d="M83.7 34.3 c-0.4 -0.3 -0.7 -2.8 -0.7 -5.5 l0 -4.8 35.3 0.2 35.2 0.3 0 5 0 5 -34.6 0.3 c-19 0.1 -34.8 -0.1 -35.2 -0.5z"/>
  <path d="M108.4 10.6 c-0.3 -0.8 -0.4 -3.1 -0.2 -5.2 l0.3 -3.9 9.5 0 9.5 0 0.3 5.3 0.3 5.2 -9.6 0 c-7.3 0 -9.7 -0.3 -10.1 -1.4z"/>
 </g>
</svg>