<?xml version="1.0" encoding="UTF-8" standalone="no"?>
<svg width="1001" height="999" version="1.1" id="svg336" sodipodi:docname="icon-imf-logo-de.svg"
    inkscape:version="1.3.2 (091e20e, 2023-11-25, custom)" xmlns:inkscape="http://www.inkscape.org/namespaces/inkscape"
    xmlns:sodipodi="http://sodipodi.sourceforge.net/DTD/sodipodi-0.dtd" xmlns="http://www.w3.org/2000/svg"
    xmlns:svg="http://www.w3.org/2000/svg">
    <sodipodi:namedview id="namedview1" pagecolor="#505050" bordercolor="#eeeeee" borderopacity="1"
        inkscape:showpageshadow="0" inkscape:pageopacity="0" inkscape:pagecheckerboard="0" inkscape:deskcolor="#505050"
        showgrid="false" inkscape:zoom="2.3483483" inkscape:cx="419.01791" inkscape:cy="465.2206"
        inkscape:window-width="2560" inkscape:window-height="1369" inkscape:window-x="1912" inkscape:window-y="-8"
        inkscape:window-maximized="1" inkscape:current-layer="g235" />
    <style id="style1">
        <![CDATA[
        .C,
        .E,
        .O {
            fill: #010101
        }

        .B,
        .F,
        .D,
        .M {
            stroke: #000
        }

        .G {
            stroke-opacity: .82
        }

        .H {
            fill-opacity: .82
        }

        .I {
            stroke-opacity: .8
        }

        .J {
            fill-opacity: .8
        }

        .K {
            stroke-opacity: .79
        }

        .L {
            fill-opacity: .79
        }

        .N {
            stroke-opacity: .53
        }

        .P {
            fill-opacity: .53
        }

        .Q {
            stroke-opacity: .45
        }

        .R {
            stroke-opacity: .02
        }

        .S {
            stroke-opacity: .78
        }

        .T {
            stroke-opacity: .36
        }

        .U {
            stroke-opacity: .55
        }

        .V {
            stroke-opacity: .49
        }

        .W {
            fill-opacity: .45
        }

        .X {
            fill-opacity: .02
        }

        .Y {
            fill-opacity: .78
        }

        .Z {
            fill-opacity: .36
        }

        .a {
            fill-opacity: .55
        }

        .b {
            fill-opacity: .49
        }

        .c {
            stroke-opacity: .06
        }

        .d {
            stroke-opacity: .35
        }

        .e {
            stroke-opacity: .77
        }

        .f {
            stroke-opacity: .04
        }

        .g {
            stroke-opacity: .43
        }

        .h {
            stroke-opacity: .62
        }

        .i {
            stroke-opacity: .81
        }

        .j {
            stroke-opacity: .84
        }

        .k {
            stroke-opacity: .32
        }

        .l {
            stroke-opacity: .52
        }

        .m {
            stroke-opacity: .56
        }

        .n {
            stroke-opacity: .61
        }

        .o {
            stroke-opacity: .4
        }

        .p {
            fill-opacity: .06
        }

        .q {
            fill-opacity: .35
        }

        .r {
            fill-opacity: .77
        }

        .s {
            fill-opacity: .04
        }

        .t {
            fill-opacity: .43
        }

        .u {
            fill-opacity: .62
        }

        .v {
            fill-opacity: .81
        }

        .w {
            fill-opacity: .84
        }

        .x {
            fill-opacity: .32
        }

        .y {
            fill-opacity: .52
        }

        .z {
            fill-opacity: .56
        }

        .AA {
            fill-opacity: .61
        }

        .AB {
            fill-opacity: .4
        }

        .AC {
            stroke-opacity: .2
        }

        .AD {
            stroke-opacity: .08
        }

        .AE {
            stroke-opacity: .51
        }

        .AF {
            stroke-opacity: .28
        }

        .AG {
            stroke-opacity: .5
        }

        .AH {
            stroke-opacity: .13
        }

        .AI {
            stroke-opacity: .15
        }

        .AJ {
            stroke-opacity: .6
        }

        .AK {
            stroke-opacity: .59
        }

        .AL {
            stroke-opacity: .46
        }

        .AM {
            stroke-opacity: .88
        }

        .AN {
            stroke-opacity: .54
        }

        .AO {
            stroke-opacity: .27
        }

        .AP {
            stroke-opacity: .76
        }

        .AQ {
            stroke-opacity: .64
        }

        .AR {
            stroke-opacity: .96
        }

        .AS {
            stroke-opacity: .39
        }

        .AT {
            stroke-opacity: .67
        }

        .AU {
            stroke-opacity: .68
        }

        .AV {
            stroke-opacity: .47
        }

        .AW {
            stroke-opacity: .23
        }

        .AX {
            stroke-opacity: .05
        }

        .AY {
            stroke-opacity: .83
        }
        ]]>
    </style>
    <use href="#B" fill="#111" fill-opacity=".2" id="use169" />
    <use href="#C" fill-opacity=".91" class="C" id="use170" />
    <use href="#D" class="E W" id="use171" />
    <use href="#E" fill-opacity=".08" id="use172" />
    <use href="#F" fill-opacity=".3" id="use173" />
    <g class="C" id="g175">
        <use href="#G" fill-opacity=".51" id="use174" />
        <use href="#H" fill-opacity=".28" id="use175" />
    </g>
    <use href="#I" fill-opacity=".5" class="E" id="use176" />
    <use href="#J" class="p" id="use177" />
    <use href="#K" class="X" id="use178" />
    <use href="#L" class="C q" id="use179" />
    <use href="#M" class="X" id="use180" />
    <g class="C" id="g184">
        <use href="#N" class="H" id="use181" />
        <use href="#O" class="r" id="use182" />
        <use href="#P" class="J" id="use183" />
        <use href="#Q" class="H" id="use184" />
    </g>
    <use href="#R" class="s" id="use185" />
    <use href="#S" class="t" id="use186" />
    <use href="#T" fill-opacity=".13" class="O" id="use187" />
    <use href="#U" class="C J" id="use188" />
    <use href="#V" fill-opacity=".51" class="E" id="use189" />
    <use href="#W" fill-opacity=".15" id="use190" />
    <use href="#X" class="E u" id="use191" />
    <g class="C" id="g196">
        <use href="#Y" fill-opacity=".86" id="use192" />
        <use href="#Z" class="J" id="use193" />
        <use href="#a" class="Y" id="use194" />
        <use href="#b" class="L" id="use195" />
        <use href="#c" class="v" id="use196" />
    </g>
    <use href="#d" fill-opacity=".6" class="E" id="use197" />
    <g class="C" id="g199">
        <use href="#e" class="H" id="use198" />
        <use href="#f" class="w" id="use199" />
    </g>
    <use href="#g" class="W" id="use200" />
    <use href="#i" class="C q" id="use202" />
    <use href="#j" fill-opacity=".59" class="E" id="use203" />
    <use href="#k" class="C H" id="use204" />
    <g class="C" id="g207">
        <use href="#m" class="H" id="use206" />
        <use href="#n" fill-opacity=".88" id="use207" />
    </g>
    <use href="#o" fill-opacity=".58" class="E" id="use208" />
    <g class="C" id="g210">
        <use href="#p" class="H" id="use209" />
        <use href="#q" fill-opacity=".54" id="use210" />
    </g>
    <use href="#r" fill-opacity=".09" id="use211" />
    <g class="C" id="g214">
        <use href="#s" class="L" id="use212" />
        <use href="#t" class="J" id="use213" />
        <use href="#u" class="Y" id="use214" />
    </g>
    <use href="#v" fill="#050505" fill-opacity=".37" id="use215" />
    <use href="#w" class="O W" id="use216" />
    <g class="C" id="g218">
        <use href="#x" class="J" id="use217" />
        <use href="#y" class="H" id="use218" />
    </g>
    <use href="#z" class="E a" id="use219" />
    <use href="#AA" fill="#0a0a0a" class="a" id="use220" />
    <use href="#AB" class="C x" id="use221" />
    <use href="#AC" fill="#080808" class="q" id="use222" />
    <use href="#AD" class="O t" id="use223" />
    <use href="#AE" fill-opacity=".73" class="C" id="use224" />
    <use href="#AF" class="t" id="use225" />
    <use href="#AG" fill="#080808" fill-opacity=".27" id="use226" />
    <use href="#AH" class="C J" id="use227" />
    <use href="#AI" class="X" id="use228" />
    <use href="#AJ" fill-opacity=".76" class="C" id="use229" />
    <use href="#AK" class="E P" id="use230" />
    <use href="#AL" fill-opacity=".08" id="use231" />
    <use href="#AM" fill-opacity=".64" class="C" id="use232" />
    <use href="#AN" class="E y" id="use233" />
    <g class="C" id="g235" transform="matrix(1.1184268,0,0,1.0555216,-57.279939,-27.755396)"
        style="paint-order:fill markers stroke">
        <use href="#AP" fill-opacity="0.95" id="use235" style="display:inline;paint-order:fill markers stroke"
            transform="rotate(180,450.04643,499.67202)" />
    </g>
    <use href="#AU" fill-opacity="0.96" class="C" id="use240"
        transform="matrix(1.0555216,0,0,1.0555216,-7.765232,-27.755396)" />
    <g class="E" id="g243" transform="matrix(1.0555216,0,0,1.0555216,-47.765232,-27.755396)">
        <use href="#AW" fill-opacity="0.67" id="use242" />
        <use href="#AX" class="z" id="use243" />
    </g>
    <use href="#Ac" class="E AA" id="use248" transform="matrix(1.0555216,0,0,1.0555216,-27.765232,-27.755396)" />
    <use href="#Ad" class="C AA" id="use249" />
    <use href="#Ae" fill-opacity=".15" id="use250" />
    <g class="C" id="g252" transform="matrix(1.0555216,0,0,1.0555216,-27.765232,-27.755396)">
        <use href="#Af" fill-opacity="0.68" id="use251" />
        <use href="#Ag" fill-opacity="0.28" id="use252" />
    </g>
    <use href="#Al" fill-opacity="0.47" class="E" id="use257"
        transform="matrix(1.0555216,0,0,1.0555216,-27.765232,-27.755396)" />
    <use href="#Am" fill-opacity=".23" id="use258" />
    <use href="#Ao" fill-opacity=".05" id="use260" />
    <g class="C" id="g262">
        <use href="#Ap" class="b" id="use261" />
        <use href="#Aq" fill-opacity=".23" id="use262" />
    </g>
    <use href="#As" class="C Z" id="use264" transform="matrix(1.0555216,0,0,1.0555216,-27.765232,-27.755396)" />
    <g class="E" id="g266">
        <use href="#At" fill-opacity=".64" id="use265" />
        <use href="#Au" fill-opacity=".67" id="use266" />
    </g>
    <use href="#Aw" fill-opacity="0.11" id="use268" transform="matrix(1.0555216,0,0,1.0555216,-27.765232,-27.755396)" />
    <use href="#Ax" class="C W" id="use269" />
    <use href="#Ay" fill-opacity="0.68" id="use270" transform="matrix(1.0555216,0,0,1.0555216,-27.765232,-27.755396)" />
    <use href="#BC" class="C a" id="use274" transform="translate(20)" />
    <use href="#BD" class="E P" id="use275" />
    <g class="C" id="g278">
        <use href="#BE" fill-opacity=".88" id="use276" />
        <use href="#BF" fill-opacity=".87" id="use277" />
        <use href="#BG" class="L" id="use278" />
    </g>
    <use href="#BH" class="E AB" id="use279" />
    <use href="#BI" class="C H" id="use280" />
    <use href="#BJ" fill-opacity=".14" id="use281" />
    <use href="#BK" class="E y" id="use282" />
    <use href="#BL" fill-opacity=".05" id="use283" />
    <g class="C" id="g285">
        <use href="#BM" fill-opacity=".63" id="use284" />
        <use href="#BN" fill-opacity=".83" id="use285" />
    </g>
    <use href="#BO" fill-opacity=".12" id="use286" />
    <use href="#BP" class="C H" id="use287" />
    <g class="E" id="g289">
        <use href="#BQ" fill-opacity=".69" id="use288" />
        <use href="#BR" class="b" id="use289" />
    </g>
    <g class="C" id="g293">
        <use href="#BS" fill-opacity=".47" id="use290" />
        <use href="#BT" fill-opacity=".9" id="use291" />
        <use href="#BU" class="r" id="use292" />
        <use href="#BV" class="Y" id="use293" />
    </g>
    <use href="#BW" fill-opacity=".59" class="E" id="use294" />
    <g class="C" id="g296">
        <use href="#BX" class="v" id="use295" />
        <use href="#BY" class="AB" id="use296" />
    </g>
    <use href="#BZ" fill-opacity=".46" class="E" id="use297" />
    <g class="C" id="g301">
        <use href="#Ba" class="P" id="use298" />
        <use href="#Bb" fill-opacity=".83" id="use299" />
        <use href="#Bc" class="J" id="use300" />
        <use href="#Bd" class="u" id="use301" />
    </g>
    <use href="#Be" fill-opacity=".18" class="E" id="use302" />
    <use href="#Bf" fill="#050505" fill-opacity=".39" id="use303" />
    <use href="#Bg" fill-opacity=".41" class="C" id="use304" />
    <use href="#Bh" fill-opacity=".2" id="use305" />
    <use href="#Bi" class="C H" id="use306" />
    <use href="#Bj" class="E b" id="use307" />
    <g class="C" id="g309">
        <use href="#Bk" fill-opacity=".26" id="use308" />
        <use href="#Bl" fill-opacity=".75" id="use309" />
    </g>
    <g class="E" id="g311">
        <use href="#Bm" class="z" id="use310" />
        <use href="#Bn" fill-opacity=".33" id="use311" />
    </g>
    <g class="C" id="g314">
        <use href="#Bo" class="w" id="use312" />
        <use href="#Bp" class="v" id="use313" />
        <use href="#Bq" class="w" id="use314" />
    </g>
    <use href="#Br" class="p" id="use315" />
    <g class="C" id="g319">
        <use href="#Bs" class="J" id="use316" />
        <use href="#Bt" class="L" id="use317" />
        <use href="#Bu" fill-opacity=".92" id="use318" />
        <use href="#Bv" class="H" id="use319" />
    </g>
    <use href="#Bw" class="X" id="use320" />
    <use href="#Bx" class="C H" id="use321" />
    <use href="#By" fill="#0d0d0d" class="Z" id="use322" />
    <g class="C" id="g328">
        <use href="#Bz" class="H" id="use323" />
        <use href="#CA" fill-opacity=".38" id="use324" />
        <use href="#CB" class="H" id="use325" />
        <use href="#CC" class="Y" id="use326" />
        <use href="#CD" class="H" id="use327" />
        <use href="#CE" class="L" id="use328" />
    </g>
    <use href="#CF" class="s" id="use329" />
    <use href="#CG" fill-opacity=".13" id="use330" />
    <use href="#CH" class="AB" id="use331" />
    <use href="#CI" fill-opacity=".6" class="C" id="use332" />
    <use href="#CJ" class="s" id="use333" />
    <use href="#CK" class="p" id="use334" />
    <use href="#CL" class="E z" id="use335" />
    <use href="#CM" fill-opacity=".16" id="use336" />
    <defs id="defs336">
        <path id="B" d="M486 1c.92 2.17 2.23.09 3 0-.35-.05-.83-.66-1-1h-2s-.18.58 0 1Z" />
        <path id="C"
            d="M67 264c.6.11 5.71.25 3.21 3.23-2.49 2.98-5.77-.37-8.21-.23-1.36.49-3.72 1.2-5 2 2.27-1.92.42 3.97-1 4 8.26 3.3 1.97 11.7 6 16-8.94 2.76 2.06-12.54-7-13-10 22.13-19.68 37.65-27.02 60.97-7.34 23.33-13.91 44.77-19.05 71.96C3.78 436.11 1 467.6 1 498c0 2.9 1.6 10.46 0 12 1.61 2.84 1.92 6.81 3 10 1.4-.74 3.24-1.62 3 1-1.83.27-4.3 1.02-5 3-.19.62-.72 2.55-1 3 1.29 20.29 5.16 46.11 9.33 66.33S18.19 633.9 26 655c7.81 21.09 11.9 37.31 21.75 56.25C57.6 730.2 65.01 747.77 78 763c-2.17 6.61 6.64 8.86 8.61 14.25 1.96 5.39 5.84 10.96 9.39 15.75-.18-.2 1.94 1.9 2 2 6.47 9.6 13.16 18.2 20.75 27.25 7.6 9.05 15.33 17.31 23.5 25.5s16.83 17.68 25.5 24.5c8.68 6.81 17.67 21.41 28.25 12.75.89 3.47-.58 7.92 0 12 17.6 5.9 32.98 28.85 53 33 3.25-.19 4.43-4.05 6-6-1.04-1.06-1.37-5.53-1-7 .57-2.3 4.01-4.61 6-5-20.68-13.1-39.07-25.89-57.75-40.25S167.01 836.07 147 824c.81-5.43-4.22-6.05-8-7 6.14-4.92-4.38-9.89-7.75-15.25-3.37-5.37-8.98-11.82-12.5-16.5-3.53-4.67-8.15-9.53-11.45-15.55-3.29-6.03-8.19-11.18-11.33-16.67-3.14-5.5-6.99-10.41-9.26-15.73-2.26-5.32-7.14-10.99-8.94-18.07S64.21 712.37 62 717c.29 1.16 0 2.8 0 4 1.25 3.47 4.48 2.37 5 7 .03.27 3.18.94-.09 1.92-3.27.97-2.68-1.47-2.91-1.92-.53-1.01-1.85-3.26-2-4-1.23-3.17-.53-8.42-5-10-.67-1.43 2.5-3.62 3-2 4.15-.05 8.58.66 12-2-2.78-6.79-5.26-18.23-15-15 .13-3.13 3.56-4.81 6-6-1.26-6.83-7.17-11.9-8-17-3.04-.03-5 1.84-8 2 .26-.09-.93 2.81-2.04 1.96-1.1-.84-2.49-1.23-.96-1.96v-3h11c-3.28-9.75-6.11-17.17-9.07-26.93-2.97-9.75-5.98-15.99-7.6-26.4-1.63-10.4-5.31-21.39-7-31s.7-25.15-9.33-27.67c-3.76 4.2 1.01-4.11 0-2 6.03-16.55.53-36.25 2-55-3.37-1.08-4.96-4.57-9-5 13.67-12.16 8.32-32.29 11.01-48.99s4.89-34.35 8.06-49.94c3.17-15.58 7.68-28.48 12.61-43.39 4.92-14.91 10.33-31.79 15.56-44.43 5.24-12.65 12.6-23.41 18-36 5.41-12.6 12.97-20.53 20.51-33.5 7.53-12.98 14.71-21.55 24-34 9.28-12.45 18.73-21.95 28.5-33.5S179.11 154.19 179 140c11.6 2.16 17.43-8.27 25.92-14.08 8.48-5.82 12.15-10.57 19.38-14.62 7.24-4.04 13.94-10.32 22.02-14.98s16.79-9.74 23.66-14.34c6.86-4.61 16.84-6.38 24.79-12.21 7.95-5.82 17.38-7.6 26.2-11.8 8.83-4.19 16.91-5.18 26.8-9.2 9.89-4.01 16.46-4.71 25.15-7.85 8.69-3.13 17.31-3.81 27.01-6.99 9.7-3.19 21.07-2.84 32-5s24.5-3.41 35.85-4.15c11.34-.74 25.65.78 33.22-5.78 9.06 6.15 26.87 4.82 39 6s24.9 3.45 37 5 22.11 3.38 33.78 6.22 20.54 4.84 30.54 8.46c10.01 3.62 23.07 7.32 32.94 11.06 9.86 3.75 16.6 7.84 26.51 11.49s19.49 8.69 28.54 14.46c9.04 5.78 19.62 10 27.44 16.12S774.5 107.29 782 115c.44.25 3.71 3.26 5 4 .62.29 3.27 1.27 4 1 .25-.09.65-.87 1-1 .56-2.54-.42-5.43 0-8 4.04-1.42 6.56 3.01 4 6-.74 1.9-3.33 2.69-3 5 1.04.82 4.81 2.91 3 4 8.79 6.81 20.25 17.27 28.77 24.23S843.36 177.19 852 161c-.53-2.08.23-5.42 3-5 .14 1.81-.44 4.08-2 5 .7 1.21 2.79 1.65 3 3 3.7-1.48-1.47 2.21-1 2-15.62 10.57 7.63 21.8 15.75 33.25 8.11 11.46 18.56 24.05 25.5 34.5 6.93 10.46 14.88 26.28 22.75 37.25.97.7 2.71-.73 4 2 0 0 1 .05 1 0 .49-1.26.99-3.89 4-3-.25 1.79-5 8.66-5 5 3.4 11.31 9.52 22.38 14.68 34.32s9.15 27.1 16.32 36.68c-3.89 4.86 2.6 9.73 3.6 13.26 1 3.52.68 9.88 3.64 13.49 2.96 3.62-1.02 10.65 3.76 8.25 2.57-1.85 2.5-6.93 7.03-5.97 4.53.95-2.19 5.13-2.03 4.97-6.48 5.37-4.34 10.34-2.4 18.26 1.94 7.91 2.72 18.73 4.4 27.74s2.76 19.61 3.94 28.92c1.17 9.31.19 18.95 1.06 29.08s-1.47 22.17 1 32c2.83-1.16 5.22-2.91 8-5 .75 7.24-.91 14.82-9 16-.09 15.05-5.53 32.04-2 45-6.49 6.83-5.74 17.66-8.01 26.99-2.27 9.34-6.55 19.98-4.99 29.01 2.32 4.03 6.72 2.06 10 4-2.54 2.8-7.26 1.25-10 0-1.74 2.4-7.07 3.51-6.02 8.97 1.04 5.47-1.28 4.77-3 10.01-1.73 5.23-1.01 4.6-4 11-3 6.39-4.88 15.56-8.06 21.94s-5.74 11.98-8.17 18.83c-2.43 6.86-8.4 12.58-10.44 19.56-2.05 6.97-5.3 11.84-6.31 16.69 1.75-.93 6.98 5.35 10 5 3.55.48 6.61-3.97 10-1 7.1-9.31 13.2-21.25 18.22-32.78 5.03-11.53 10.31-23.43 14.43-35.52 4.12-12.1 8.18-21.76 11.33-32.67S987.6 618.97 987 607c6.45-12.05 6.31-25.15 9.01-38.99 2.7-13.85 3.25-32.93 3.99-48.01s-.98-34.12-.02-49.98-3.67-28.97-6.98-43.02c-1.19-3.82-.27-7.43 0-11-2.35-8.5.69-26.46-11-26 7.68-6.17 4.07-20.87-6-20 .83-2.81 3.92-2.83 6-4-4.84-20.59-13.36-41.23-21.03-59.97s-16.86-36.65-26.2-53.8-21.8-34.56-33-50-23.88-31.88-38.52-45.48c-14.65-13.59-27.14-30.29-43.5-41.5C803.38 104.05 787.91 82.82 766 87c2.18-2.85 3.38-6.27 3-10-18.75-10.36-38.6-19.37-57-28 1.07 3.09-1.41 2.08-3 3 .59-2.27-.85-3.9-1-6-4.79-1.85-10.23-5.87-17-5-7.48-8.39-18.48-9.8-28.98-14.02-10.49-4.23-25.1-7.38-36.8-10.2-11.69-2.83-23.1-6.77-35.2-7.8C577.93 7.94 561.84-1.19 554 10c-1.76-11.3-17.41-7.14-26-9s-7.41 1.6-13 4c-3.38 1.45-3.3-2.56-4-3-6.07-2.85-15.03 0-22-1-.77.09-2.08 2.17-3 0-45.07.67-85.1 9.44-125 19-.35 3.08 1.18 7.43-2 9-6.54-9.17-17.89-3.25-26.77.23s-17.65 6.86-25.53 10.47l-25.47 11.53c-8.71 4.07-15.97 8.59-23.49 12.51-7.51 3.92-17.69 9.36-24.66 14.34s-16.67 9.57-22.85 15.15S190.9 102.92 194 111c-10.38-1.52-18.09 8.79-25.25 14.75s-15.19 15-22 22c-6.8 7-15.06 14.51-21.98 22.02s-12.64 16.01-19.02 23.98-13.18 16.84-17.83 24.17c-4.66 7.32-12.52 18.12-16.16 25.83-3.65 7.72-15.95 18.2-4.76 20.25M502 18c-1.33-3.62.89-4.56 2-8 5.67.18 2.11 8.33-2 8m-130 9c-.91 4.02-4.26 4.4-5 9-4.29-5.09-2.8-11.28 5-9m-65 23c-2.89 1.57-3.42 3.98-2 7-1.31-1.14-5.59-3.57-4-5-.75-3.03.36-1.19 3-2 .7-.22 1.96-.73 3-1 1.71-.45 3.32-1.39 5-2 .41 2.89-2.89 3.3-5 3m404 7c-.04-.35 3.29.68 2 2-.96-.11-5.97.53-4-1-1.41-1.48 1.45-4.46 1-6 1.75.83.66 3.44 1 5m27 10c-2.48 2.7-4.87 7.25-9 7 1.32-3.38 1-7.27 1-11 3.39-.57 5.48 2.47 8 4m216 240c.7 3.07 1.22 4.94 1 8-3.8-2.67-8.29-8.86-6-13-.73-1.02-2.4-1.21-2-3 2.54 1.44 7.37 5.74 7 8m14 38c-.48-5.75-2.14-2.86-5 0-2.69-7.39 9.21-7.15 5 0M50 662c-8.78 1.46-5.96-3.98 0 0m90 157c-1.09 5.35-6.83 5.96-11 4 3.59-1.45 8.39-.77 11-4m77 70c-1.13 3.71-3.95 8.1-8 9-1.74-7.2 1.97-9.18 8-9z" />
        <path id="D" d="M515 5c-1.6-.59-2.43-2.26-4-3 .7.44.62 4.45 4 3Z" />
        <path id="E" d="M502 18c4.11.33 7.67-7.82 2-8-1.11 3.44-3.33 4.38-2 8Z" />
        <path id="F" d="M372 27c-7.8-2.28-9.29 3.91-5 9 .74-4.6 4.09-4.98 5-9Z" />
        <path id="G" d="M712 49c-1.5-.71-2.55-2.11-4-3 .15 2.1 1.59 3.73 1 6 1.59-.92 4.07.09 3-3Z" />
        <path id="H" d="M307 49c-.23.15 0 1 0 1 2.11.3 5.41-.11 5-3-1.68.61-3.29 1.55-5 2Z" />
        <path id="I"
            d="M304 50c.51-.5-.84 3.48-1 4-.83-.41-1.87-.97-2-2-1.59 1.43 2.69 3.86 4 5-1.42-3.02-.89-5.43 2-7 0 0-.23-.85 0-1-1.04.27-2.3.78-3 1Z" />
        <path id="J" d="M301 52c.13 1.03 1.17 1.59 2 2 .16-.52 1.51-4.5 1-4-2.64.81-3.75-1.03-3 2Z" />
        <path id="K" d="M709 58c.69.73 1.82-.5 2-1-.34-1.56.75-4.17-1-5 .45 1.54-2.41 4.52-1 6Z" />
        <path id="L" d="M709 58c-1.97 1.53 3.04.89 4 1 1.29-1.32-2.04-2.35-2-2-.18.5-1.31 1.73-2 1Z" />
        <path id="M" d="M738 67c-2.52-1.53-4.61-4.57-8-4 0 3.73.32 7.62-1 11 4.13.25 6.52-4.3 9-7Z" />
        <path id="N"
            d="M520 106c3.09-7.17-10.19-15.66-11.02-7.02-.84 8.64-5.74 13.58-1.9 21.94 3.85 8.35 7.04-7.08 8.92-7.92.74 3.76 2.05 7.33 3 11 5.96.55 4.68-7.91 9-10 .67 4.98.49 12.36 8 10-.93-8.91 3.97-29.01-9-28 .67 3.35-3.31 8.95-7 10Z" />
        <path id="O"
            d="M470 117c-.54-6.88 2.33-21-9-20-.38 9.67.4 19.1 3 28 5.59-.55 16.38 2.6 16-6-3.77-.54-5.42-2.61-10-2Z" />
        <path id="P"
            d="M563 99c-17.26-4.06-24.8 24.44-6.67 28.67S580.46 103.11 563 99m-1 7c6.59 2.97 4.11 16.92-3.23 15.21s-5.8-16.64 3.23-15.21zm-118 16c2.98 7.77 11.73 5.3 7.77-1.77s-5.95-7.51-8.46-13.54c-2.52-6.02-6.63-8.52-12.31-2.69 1.63 2.21-1.58 7.47 2.33 8.67s6.57-.44 7.67 4.33c-5.75-4.68-15.68-2.67-13 9 2.69 11.67 8.44-5.57 16-4zm158-2c-7.56-2.12-3-15.75-13-16-3.65 9.04-5.92 11.64-6.67 22.33s10.03 3.62 9.67-5.33c-.15 5.12 8.82 20.77 13.02 12.02 4.21-8.74 3.41-15.36 4.98-25.02-6.82-1.7-10.71 6.86-8 12z" />
        <path id="Q"
            d="M401 126c3.29-.58 14.45 13.53 17.22 6.22s-3.23-12.57-4.25-21.19c-1.01-8.63-13.56-.98-6.97 7.97-2.07-1.45-14.05-14.7-16.67-7.67s2.43 13.81 4.89 21.45c2.47 7.64 12.12 2.17 5.78-6.78z" />
        <path id="R" d="M562 106c-9.03-1.43-10.57 13.5-3.23 15.21s9.82-12.24 3.23-15.21z" />
        <path id="S"
            d="M792 119c1.15-.44 3.18-.86 4-2 2.56-2.99.04-7.42-4-6-.42 2.57.56 5.46 0 8m2-7c2.15 7.16-3.17 5.47 0 0Z" />
        <path id="T" d="M794 112c-3.17 5.47 2.15 7.16 0 0Z" />
        <path id="U"
            d="M638 124c.57-7.97-9.18-9.31-15-10-2.75 6.51-3.94 12.09-6.07 18.93-2.13 6.83.45 9.82 9.07 11.07 8.61 1.25 4.59-8.42-2-10 3.94-.11 11.62 1.54 10-5-3.26-.1-3.8-4.11-6-6 3.38.56 6.14 1.19 10 1Z" />
        <path id="V" d="M782 115c.71.73 1.09 1.32 2 2 .95.71 1.95 1.51 3 2-1.29-.74-4.56-3.75-5-4Z" />
        <path id="W"
            d="M793 124c-.91-.95-2.19-2.6-2-4-.73.27-3.38-.71-4-1-1.05-.49-2.05-1.29-3-2 2.79 2.69 5.76 4.62 9 7Z" />
        <path id="X"
            d="M792 119c-.35.13-.75.91-1 1-.19 1.4 1.09 3.05 2 4l3 2c1.81-1.09-1.96-3.18-3-4-.33-2.31 2.26-3.1 3-5-.82 1.14-2.85 1.56-4 2z" />
        <path id="Y" d="M356 125c-8.9 17.35 19.2 31.09 26.69 13.69 7.49-17.39-18.46-27.15-26.69-13.69Z" />
        <path id="Z"
            d="M653 123c-8.52-.85-2.38 8.44-3.02 12.98-.65 4.53-8.05 11.66-3.2 15.24 4.84 3.58 9.28-5.63 9.45-9.99s12.78-7.37 10.02-10.48c-2.76-3.1-9.81-7.41-13.25-7.75z" />
        <path id="a"
            d="M341 130c-6.71-3.21-6.55 8.55-2.93 11.93 3.62 3.37.74 10.91 6.71 14.29s6.87-9.28 3.14-12.14c-3.72-2.87-3.4-12.39-6.92-14.08z" />
        <path id="b"
            d="M327 140c-4.73-2.58-16.49-.1-19.22 5.78-2.73 5.87 12.42 4.49 12.3 14.14-.11 9.64 15.07 6.84 8.23-1.23-6.85-8.06-5.04-11.31-1.31-18.69Z" />
        <path id="c"
            d="M664 157c-2.43 7.95 13.91-.49 15.23 3.77s7.32 14.31 10.44 6.9-.34-16.09 1.32-23.66-12.75-3.32-14.24 1.74c-1.48 5.07-11.13 6.05-12.75 11.25m20-6c3.68 4.52-6.51 5.77-4 0 1.39 3.35 2.51 3.09 4 0z" />
        <path id="d" d="M684 151c-1.49 3.09-2.61 3.35-4 0-2.51 5.77 7.68 4.52 4 0Z" />
        <path id="e"
            d="M726 168c-3.28-9.51-15.59-19.39-20.23-10.23S690.18 180.98 705 175c.15 7.79 8.95 14.5 9 5 .06-9.49 5.6-8.82 12-12m-17-7c2.99-3.51 11.82 2.87 6.24 6.25-5.57 3.37-8.57-2.66-6.24-6.25m-3 14c-4.77-2.45 1.37-6.12 0 0z" />
        <path id="f"
            d="M312 172c-5.94-6.63-11.02-4.59-17.25-11.75-6.23-7.17-13.55 1.28-9.72 8.72 3.83 7.43-1.34 16.34 8.97 18.03 1.53-3.5 1.52-11.74 6.99-10.99 5.48.75 10.62 2.96 11.01-4.01Z" />
        <path id="g" d="M852 161s.87-.22 1 0c1.56-.92 2.14-3.19 2-5-2.77-.42-3.53 2.92-3 5Z" />
        <path id="h" d="M709 161c-2.33 3.59.67 9.62 6.24 6.25 5.58-3.38-3.25-9.76-6.24-6.25Z" />
        <path id="i" d="M855 166c-.47.21 4.7-3.48 1-2 .05.36-.72 1.81-1 2Z" />
        <path id="j" d="M734 187c3.58-4.82 1.44-11.22 2-17-4.98 1.71-.3 14.26-2 17Z" />
        <path id="k"
            d="M734 187c-3.66 2.6-7.12 6.9-6 12 10.67 1.58 8.53-10.28 19.33-10.67 10.79-.4 6.86-13.78-4.33-7.33-.29-2.99-1.69-12.82-7-11-.56 5.78 1.58 12.18-2 17Z" />
        <path id="l" d="M706 175c1.37-6.12-4.77-2.45 0 0Z" />
        <path id="m"
            d="M283 195c-5.85-8.3-5.22-11.64-12.75-19.25-7.54-7.61-11.98 4.82-3.25 10.25-6.39-.4-13.43-7.81-19-1 6.18 8.12 4.84 10.05 12.25 17.75s11.49-3.97 2.75-9.75c7.07-.63 12.57 7.69 20 2z" />
        <path id="n"
            d="M312 248c.02-.02-1.66 1.82-2 2l-19 15c-.94 1.21-3.71 4.16-5 5-12.77 13.02-27.64 24.71-36 41 1.28-.49-.38 2.68 0 3 2.76.84 8.57-1.96 9 2 9.83-1.85 15.08-12.14 21.75-19.25S299.12 282.97 297 272c10.77 6.3 17.04-8.33 26.92-14.08 9.89-5.74 17.65-12.72 27.39-17.61 9.73-4.9 17.53-10.04 28.62-14.38 11.08-4.35 17.97-7.66 30-11 12.02-3.34 21.14-6.3 34.05-8.95 12.9-2.66 27.96-3.72 41.02-4.98-1.52.78 3.54-2.91 8-2s9.46.72 14 0 10.62 1.65 13 2c5.24-.36 12.01 2.2 16 0-1.66-.27.91-3.12 1-4 1.28.24 2.97 2.44 1 3v3c15.5 2.72 31 5.23 44.93 9.07 13.92 3.85 24.79 8.1 35.37 12.62 10.59 4.53 20.96 9.59 31.95 16.06 11 6.47 22.17 18.29 34.75 16.25-1.42 11.96 12.56 15.32 19.25 23.75 6.68 8.44 14.84 12.91 21 22C731.4 311.84 742 319.38 754 316c-4.61-9.55-12.97-17.9-19.75-26.25-6.78-8.36-14.65-15.92-22.5-23.5s-16.76-13.04-25.05-19.95c-8.29-6.9-18.92-12.46-28.45-17.55-9.53-5.08-17.68-13.06-26.25-10.75-.41-7.6-12.61-10.54-19-10-6.48-6.95-16.89-6.45-26.23-9.43-9.34-2.97-21.93-8.26-33.77-8.57-11.84-.32-26.03-4.64-38.33-4.67s-29.46-1.57-41 1.34-25.48 1.69-34.99 4.67c-9.52 2.98-21.99 3.41-24.68 11.66-10.76-7.73-23.31 3.55-34.3 6.7s-23.81 10.93-35 17c-11.19 6.06-22.39 14.19-32.7 21.3z" />
        <path id="o" d="M536 201c.56-.31 1.55-.48 2-1 1.97-.56.28-2.76-1-3-.09.88-2.66 3.73-1 4Z" />
        <path id="p"
            d="M253 211c-11.43 3.46-7.84-12.89-16.32-12.66-8.49.22-16.06 8.31-10.43 14.41 5.62 6.1 9.26 11.83 16.75 15.25 3.24-4.23-1.42-7.06-1-11 5.76 2.43 16.89 1.58 11-6m-15 0c-12.9 1.07.68-13.73 0 0Z" />
        <path id="q" d="M485 201c11.56-1.12 23.41.79 35 0-2.38-.35-8.46-2.72-13-2s-9.54.91-14 0-9.52 2.78-8 2z" />
        <path id="r" d="M238 211c.68-13.73-12.9 1.07 0 0Z" />
        <path id="s"
            d="M790 217c-.04-4.65-10.85-17.37-14.75-10.75-3.91 6.61-13.25 7.35-14.24 15.74-.99 8.4 15.07-1.49 19.99 2.01-.62-3.47-2.38-6.57-3-10 4.19 2.12 7.61 2.8 12 3Z" />
        <path id="t"
            d="M212 230c2.26-2.68 8.15-13.03 1.7-12.3-6.46.72-6.88 6.82-10.7 10.3 4.13 7.31 11.91 12.21 17 19 4.88-2.49 10.38-3.45 11.66-10.32s-7.32-2.08-10.66.32c.21-4.75 6.94-9.01 1-13-3.88 1.03-5.75 5.88-10 6zm591 8c-1.36 1.51-3.65 5.09-6 6-5.88 4.47-8.46-4.08-2.75-6.75 5.71-2.68 7.48-6.89 8.75-12.25-7.86-.86-16.39 5.47-20.67 14.33s12.07 18.4 17.92 11.92c5.86-6.47 19.61-13.88 5.75-16.25.27 2.05-1.88 2.19-3 3z" />
        <path id="u"
            d="M209 265c5.56-11.68-12.54-11.93-11.78-22.78.75-10.84-17.72 6.75-13.22 13.78 4.32-2.34 8.92-4.42 12.25.75s7.86 6.23 12.75 8.25Z" />
        <path id="v" d="M797 244c2.35-.91 4.64-4.49 6-6-2.53 1.83-3.72 4.23-6 6Z" />
        <path id="w" d="M310 250c.34-.18 2.02-2.02 2-2-.85.58-1.26 1.4-2 2Z" />
        <path id="x"
            d="M813 265c4.45-4.09 3.34-1.21 1 3-2.01 5.06-6.59 11.19-1 16 8.44-4.4 11.04-4.99 18.75-12.25 7.72-7.26-3.87-11.57-9.75-2.75-1.51-4.38 7.43-12.69 2.25-17.24-5.19-4.55-9.7 3.72-14.35 6.14s-11.71 7.43-7.9 14.1c4.37-.71 7.91-4.16 11-7z" />
        <path id="y"
            d="M181 283c10.69 3.74 18.79-4.63 10.1-9.1-8.68-4.47-7.56-9.72-17.1-11.9-.5 2.28-2.97 3.63-3 6 2.48 2.4 5.78 3.94 8 6-4.58-.97-21.36 2.93-14.75 9.75 6.61 6.81 8.96 5.17 16.5 10.49 7.55 5.33 5.93-8.35.25-11.24Z" />
        <path id="z" d="M813 265c.03.54 1.09 1.71 1 3 2.34-4.21 3.45-7.09-1-3Z" />
        <path id="AA"
            d="M67 264c1.3-.66 4.35 1.22 1 2-2.19.51-6.47 1.17-6 1 2.44-.14 5.72 3.21 8.21.23 2.5-2.98-2.61-3.12-3.21-3.23Z" />
        <path id="AB" d="M68 266c3.35-.78.3-2.66-1-2 .17.07.72 1.79 1 2Z" />
        <path id="AC" d="M286 270c1.29-.84 4.06-3.79 5-5-1.96 1.57-3.64 3.61-5 5Z" />
        <path id="AD"
            d="M55 276c9.06.46-1.94 15.76 7 13-4.03-4.3 2.26-12.7-6-16 1.42-.03 3.27-5.92 1-4-.28 1.23-1.72 2.27-3 2 1.97.76.73 4.57 1 5Z" />
        <path id="AE" d="M919 271c1.3.37 2.1 1.32 3 2h1c-1.29-2.73-3.03-1.3-4-2Z" />
        <path id="AF" d="M924 273c-.29.76-.63 1.27-1 2 0 3.66 4.75-3.21 5-5-3.01-.89-3.51 1.74-4 3Z" />
        <path id="AG" d="M922 273c-.9-.68-1.7-1.63-3-2 1.06 1.47.08 4.64 3 2Z" />
        <path id="AH"
            d="M844 280c-5.08-1.3-9.47 6.52-14.32 7.68s-10.19 6.81-5.93 12.57 10.33 6.87 16.23 6.72c5.89-.14 9.31-7.69 11.02-10.97s-4.17-15.28-7-16m-2 9c2.87 8.3-4.92 12.31-11 9 1.23-4.88 6.92-7.24 11-9z" />
        <path id="AI" d="M842 289c-4.08 1.76-9.77 4.12-11 9 6.08 3.31 13.87-.7 11-9Z" />
        <path id="AJ"
            d="M177 311c1.33-7.53-7.52-9.26-12.31-13.69-4.79-4.44-17.22-6.15-12.69 3.69 7.8-.24 15.65 12.53 25 10Z" />
        <path id="AK" d="M949 302c1.18 1.66 4.18 3.5 5 5 .37-2.26-4.46-6.56-7-8-.4 1.79 1.27 1.98 2 3Z" />
        <path id="AL" d="M954 307c-.82-1.5-3.82-3.34-5-5-2.29 4.14 2.2 10.33 6 13 .22-3.06-.3-4.93-1-8Z" />
        <path id="AM"
            d="M259 316c-.43-3.96-6.24-1.16-9-2-.38-.32 1.28-3.49 0-3-.7 1.68-2.76 2.81-2 5 3.63-.3 7.38.4 11 0Z" />
        <path id="AN" d="M968 345c4.21-7.15-7.69-7.39-5 0 2.86-2.86 4.52-5.75 5 0Z" />
        <path id="AO"
            d="M262 655c3.88-2.8-.09-13.06 1-18s-.47-13.16 0-19-.22-13.81 0-20-.1-12.63 0-19-.04-13.56 0-20v-19-20-19-19-20-19-20c-.13-6.43.31-12.66 0-19s.65-13.86 0-20 1.51-13.34 0-19 2.79-14.62 1-19c-3.95-5.59-18.39-.36-26-1s-20.97-.86-29 0-19.63-3.23-26.97-.97c-7.35 2.26-1.74 16.48-3.03 23.97s.56 19.37 0 28 .26 19.91 0 29 .1 18.68 0 28v29 28 29 28c.28 9.24-.62 20.05 0 29s-1.42 19.76 0 28-3.15 21.99.23 28.77c3.39 6.77 18.47 1.21 25.77 2.23s21.1.56 29 0 20.58 2.71 28 0z" />
        <path id="AP"
            d="m 302 382 c 0.08 1.78 0.25 2.1 0 4 c 0 1.78 2.83 4.36 -1 5 c -0.99 2.79 -1.29 5.91 -1 9 c 2.27 0.72 2.06 3.04 2 5 c -2.53 0.63 -1.9 -2.53 -2 -4 c -3.76 5.08 -2.58 22.26 -2 29 c 0.14 1.57 2.22 3.27 0 5 c -0.05 0.15 -1 0 -1 0 c -1.93 22.33 -6 44.2 -6 65 c 0.08 0.49 3.3 3.5 1 6 c -1.39 -0.26 -0.78 -2.05 -1 -3 c -3.68 16.78 -2.64 36.64 -5.01 53.99 c -2.36 17.36 -4.95 35.43 -4.99 53.01 c 0.01 0.1 1.92 0.29 1.96 2.04 c 0.04 1.74 -1.9 1.59 -1.96 1.96 c 0 9.97 -0.69 16.46 -2.67 26.33 c -1.98 9.87 0.65 16.31 11.67 14.67 c 11.02 -1.64 17.62 0.32 28 0 c 10.38 -0.32 18.65 -0.66 29 0 c 10.35 0.66 17.57 -0.13 17.22 -10.78 c -0.35 -10.65 1.93 -15.75 2.78 -24.22 c 0.85 -8.47 0.16 -16.96 1 -25 c 0.84 -8.03 1.64 -16.84 2.21 -24.77 c 0.58 -7.93 1.79 -15.55 1.79 -24.23 c -0.16 -1.82 -0.4 -3.09 0 -5 c 2.59 -7.03 -0.66 -17.18 3 -24 c 8.62 22.11 15.81 45.13 23.68 67.32 L 417 630 c -2.9 -4.24 5.43 3.84 2 3 c 13.8 4.08 26 -2 41 1 c 15 3 14.98 -11.47 17.75 -21.25 c 2.76 -9.79 9.11 -20.06 12.06 -29.5 c 2.94 -9.45 4.81 -17.58 8.42 -27.02 c 3.61 -9.44 7.28 -19.92 10.45 -29.55 c 3.17 -9.63 8.45 -19.99 9.32 -9.68 c 2.94 8.23 4.39 19.77 4.67 30.33 c 0.28 10.56 1.41 22.16 2.33 32.67 l 3 32 c 1.26 10.35 1.3 21.71 2 32 c 0.01 0.06 1 0 1 0 c 2.49 2.41 -0.44 6.22 0 8 c 3.37 6.52 20.26 2.47 28 3 c 7.74 0.53 23.31 0.73 31 0 c 7.69 -0.73 25.26 4.29 27 -4 c 1.74 -8.29 -3.28 -19.32 -3 -28 c 0.28 -8.68 -1.82 -20.29 -2.07 -28.92 c -0.25 -8.63 -2.41 -15.04 -2.93 -24.08 c -0.52 -9.04 -1.09 -19.41 -2 -28 c 0.08 0.19 -0.8 0.93 -1.92 -1.09 c -1.12 -2.02 1.91 -3.81 1.92 -3.91 c -1.41 -27.59 -3.59 -57.14 -8 -84 c -3.44 -0.58 -1.46 -3.16 -1 -5 c 0.05 -1.22 0.93 -2.41 1 -3 c -0.91 -10.68 -2.63 -21.64 -3.67 -32.33 c -1.04 -10.69 -1.48 -22.26 -3.33 -32.67 c -1.85 -10.41 2.18 -23.42 -2 -33 c -6.89 -1.69 -14.71 -1 -22 -1 c -7.64 0 -16.48 -0.78 -24 0 c -7.52 0.78 -17.6 -1.13 -21 -2 c -8.99 0 -18.99 -3.08 -22 6 c -0.21 1.06 -1.06 3.1 -1 3 c -10.66 24.29 -18.94 47.95 -27.69 70.31 c -8.76 22.35 -18.98 50.2 -26.31 70.69 c -12.54 -27.04 -25.03 -56.59 -35 -85 c -0.17 -0.26 -0.73 -1.69 -1 -3 c -6.21 -18.75 -14.18 -44.73 -23 -59 c 0.05 -0.61 -10.37 -1.4 -14 -1 c -3.63 0.4 -12.3 -0.37 -17 0 c -4.7 0.37 -11.88 -0.58 -17 0 c -5.12 0.58 -11.82 -1.18 -17 0 c -5.18 1.18 -12.13 -1.71 -15 -2 c -10.95 1.22 -6.42 9.07 -8.07 16.93 c -1.65 7.85 -0.97 13.85 -1.93 21.07 m 211 -37 c -3.99 2.79 -6.19 -1.1 0 0 z" />
        <path id="AQ"
            d="M392 347c-3.95-6.39-16.99-2.26-25-3s-19.52-.04-28 0-18.5-.95-27 0c2.87.29 9.82 3.18 15 2s11.88.58 17 0 12.3.37 17 0 13.37.4 17 0 14.05.39 14 1z" />
        <path id="AR" d="M573 346c-.19-.08.19-1.92 0-2h-45c3.4.87 13.48 2.78 21 2s16.36 0 24 0z" />
        <path id="AS" d="M573 346c7.29 0 15.11-.69 22 1-2.47-5.65-16.74-3-22-3 .19.08-.19 1.92 0 2Z" />
        <path id="AT" d="M646 344c-8.32-1.21-6.11 2.91 0 0Z" />
        <path id="AU"
            d="M635 654c.35.23 1.5 0 2 0 8.61 0 18.52.53 27 0s19 1.41 27 0 20.85 3.55 27-1c-.62-6.85-.08-14.93 1-21 .09-1.58.83-3.03 1-4v-89c6.96.63 14.75-.4 21-1-2.33-.05-4.67.04-7 0 22.34-1.67 47.35-1.66 70 0 1.97.19 7.26.86 9 0v-77c-8.2-4.05-20.61.16-30-1s-21.2.1-31 0-21.16-.9-31 0c.24.32 0 1 0 1h5c-10.5 5.66-8.46-10.5-8-17s-2.44-20.06 3-22c11.39-.39 24.82.53 36 0s25.57 1.01 36 0 28.51 5.12 29-7-.06-24.06 0-36 .77-23.57-1-35c-13.54 4-30.64 1.53-46 2s-31.54-.13-47 0h-47c-15.44-.11-31.02.89-46-1-1.98 6.86-.75 14.69-1 22s.11 14.66 0 22v22 22 23 22 22 22 22 23c.11 7.28-.26 14.98 0 22s-.57 15.44 0 22-1.27 16.42 0 22-3.29 18.21 1 21z" />
        <path id="AV" d="M513 345c-6.19-1.1-3.99 2.79 0 0Z" />
        <path id="AW"
            d="M262 655c7.21-2.63 1.68-18.82 3-26s-.57-19.51 0-28-.26-19.97 0-29-.11-18.71 0-28v-29-28-29-28c-.28-9.27.61-19.98 0-29s1.41-19.61 0-28 3.61-20.48-1-27c1.79 4.38-2.51 13.34-1 19s-.65 12.86 0 19-.31 13.66 0 20-.13 12.57 0 19-.06 13.53 0 20v19 20 19 19 20 19 20c-.1 6.37.22 12.81 0 19s.47 14.16 0 20 1.09 14.06 0 19 2.88 15.2-1 18z" />
        <path id="AX" d="M505 353c-.06.1.79-1.94 1-3l-1 3z" />
        <path id="AY"
            d="M965 381c1.77-.89 1.78-.96 3.32-2.66 1.53-1.71 3.23 1.83 1.68 1.66-.16.16 6.56-4.02 2.03-4.97-4.53-.96-4.46 4.12-7.03 5.97Z" />
        <path id="AZ" d="M301 390c1.25-1.22.77-2.24 1-4 .25-1.9.08-2.22 0-4-.29 2.14-1 5.15-1 8Z" />
        <path id="Aa" d="M301 390s.16.56 0 1c3.83-.64 1-3.22 1-5-.23 1.76.25 2.78-1 4Z" />
        <path id="Ab" d="M300 401c.1 1.47-.53 4.63 2 4 .06-1.96.27-4.28-2-5v1z" />
        <path id="Ac" d="M416 409l-1-3c.27 1.31.83 2.74 1 3z" />
        <path id="Ad" d="M993 427c-.2-.87 0-2.11 0-3v-8c-.27 3.57-1.19 7.18 0 11Z" />
        <path id="Ae" d="M993 424c.63-2.88.34-5.17 0-8v8Z" />
        <path id="Af"
            d="M721 461c-4.46-.95-.97-10.43-2-14s.7-11.86 1-15c0-2.43-1.05-8.57 1-10-5.44 1.94-2.54 15.5-3 22s-2.5 22.66 8 17c-1.67-.01-3.33.01-5 0z" />
        <path id="Ag" d="M297 435s.95.15 1 0c.51-1.49-.39-3.47 0-5-.16 1.12-.85 3.26-1 5Z" />
        <path id="Ah" d="M298 435c2.22-1.73.14-3.43 0-5-.39 1.53.51 3.51 0 5Z" />
        <path id="Ai" d="M721 461s.24-.68 0-1c-3.76-5.08-1-21.28-1-28-.3 3.14-2.03 11.43-1 15s-2.46 13.05 2 14z" />
        <path id="Aj" d="M603 448c-.08 1.82-.21 2.82 1 4v-7c-.07.59-.95 1.78-1 3z" />
        <path id="Ak" d="M604 453v-1c-1.21-1.18-1.08-2.18-1-4-.46 1.84-2.44 4.42 1 5Z" />
        <path id="Al" d="M813 538c5.21-2.58 1.38-19.08 2-25s.62-21.09 0-27 3.22-22.42-2-25v77z" />
        <path id="Am" d="M0 510h1c1.6-1.54 0-9.1 0-12H0v12Z" />
        <path id="An" d="M291 503c.22.95-.39 2.74 1 3 2.3-2.5-.92-5.51-1-6 0 .91.19 2.12 0 3Z" />
        <path id="Ao" d="M0 523l3-2c.31-.21.73-.86 1-1-1.08-3.19-1.39-7.16-3-10H0v13z" />
        <path id="Ap"
            d="M4 520c-.27.14-.69.79-1 1-1.33 1.27-.87 2.58-1 3 .7-1.98 3.17-2.73 5-3 .24-2.62-1.6-1.74-3-1Z" />
        <path id="Aq" d="M0 523v4s.86.23 1 0c.28-.45.81-2.38 1-3 .13-.42-.33-1.73 1-3l-3 2z" />
        <path id="Ar" d="M612 542c-.17-1.64.08-3.35 0-5-.01.1-3.04 1.89-1.92 3.91s2 1.28 1.92 1.09z" />
        <path id="As" d="M741 538c20.75.41 42.65 1.97 63 0-22.65-1.66-47.66-1.67-70 0 2.33.04 4.67-.05 7 0Z" />
        <path id="At" d="M372 546c0-1.63-.17-3.38 0-5-.4 1.91-.16 3.18 0 5Z" />
        <path id="Au" d="M22 559c-.12-.03-.11-1.53 0-2 1.01-2.11-3.76 6.2 0 2Z" />
        <path id="Av" d="M281 614c.06-.37 2-.22 1.96-1.96-.04-1.75-1.95-1.94-1.96-2.04v4Z" />
        <path id="Aw"
            d="M719 632c-.4 6.96.63 14.06 0 21-.23 4.06-14.15 1.55-19 2s-15.05-.04-21 0-14.65.35-21 0-15.46 1.36-21-1c-.5 0-1.65.23-2 0-.15 3.1 9.52 1.88 13 2 3.49.12 8.42.02 14 0s7.26.15 15 0 20.3.23 28 0 9.57 1.62 14.22-.78-.52-9.58.78-13.22 0-10.1 0-14c-.17.97-.91 2.42-1 4z" />
        <path id="Ax" d="M962 632c2.74 1.25 7.46 2.8 10 0-3.28-1.94-7.68.03-10-4 .29 1.67 1.03 2.58 0 4Z" />
        <path id="Ay" d="M718 653c.32-.24 1 0 1 0 .63-6.94-.4-14.04 0-21-1.08 6.07-1.62 14.15-1 21Z" />
        <path id="Az" d="M536 652c-.18-2.65.24-5.36 0-8 0 0-.99.06-1 0 .2 2.99-.25 5.58 1 8Z" />
        <path id="BA" d="M536 652c-.44-1.78 2.49-5.59 0-8 .24 2.64-.18 5.35 0 8Z" />
        <path id="BB" d="M422 650c.65 1.69.34 1.95 2 3 3.43.84-4.9-7.24-2-3Z" />
        <path id="BC"
            d="M637 654c5.54 2.36 14.65.65 21 1s15.05.04 21 0 16.15.45 21 0 18.77 2.06 19-2c0 0-.68-.24-1 0-6.15 4.55-19-.41-27 1s-18.52-.53-27 0-18.39 0-27 0zm-587 8c-5.96-3.98-8.78 1.46 0 0z" />
        <path id="BD" d="M47 674c-.73.04-2.35-.31-3 0-1.53.73-.14 1.12.96 1.96 1.11.85 2.3-2.05 2.04-1.96Z" />
        <path id="BE"
            d="M489 812c-.24-2.64.32-5.37 0-8-4.61-9.43-19.11-6.48-29.99-8.01s-21.34-4.74-31.34-6.66c-9.99-1.92-17.59-4.99-26.64-7.35-9.06-2.37-16.22-7.86-25.8-10.21S358.46 758.24 349 758c-.12-.15-1.86 6.56-2 7-.38 1.15-3.04 5.62-2 2-.29-1.73.84-8.1 2-9-9.02-6-17.85-15.42-27.75-20.25-9.9-4.82-15.73-18.13-26.25-21.75-.99 1.22-2.39 1.02-4 1 2.45-4.26-3.44-8.67-7-10-.48-.09-1 0-1 0-1.53.25-2.18 2.55-4 2 3.11-15.47-14.31-29.92-30-25 5.48 9.27 12.99 19.33 20.75 27.25 7.77 7.92 15.36 16.18 23.55 23.45s17.3 15.06 26.47 20.53S336.61 772.71 347 769c-.69 7.79 8.41 9.7 13.77 12.23s9.58 4.38 15.55 7.45c5.97 3.06 13.51 4.4 19.43 6.57 5.93 2.16 9.54 3.85 15.23 5.77 5.68 1.93 13.63 2.33 18.27 4.59 4.64 2.25 14.29 2.69 19.46 2.68 5.16 0 14.76 5.98 20.29 4.71 5.52-1.27 17.13 5.31 20-1z" />
        <path id="BF"
            d="M724 698c.42-.94 1.08 1.78-.75 3.25-1.84 1.46-3.91 2.48-4.25 2.75-3.53 4.28-8.36 8.77-12 13 3.14 2.89 4.15 3 2 8-12.53-5.32-21.25 9.38-31.77 16.23s-22.05 15.07-33 21-22.09 11.47-33.2 15.8c-11.12 4.32-24.43 7.7-36.33 11.66-11.91 3.97-30.52 4.68-42.7 7.31s-37.92-5.81-41 10c-.29 1.51.41 3.83-1 5 5.96 3.85 17.62 1.69 25 2s18.65 2.57 19-7c4.04 6.67 14.5 3.88 21.32 2.32 6.82-1.55 15.96-4 22.68-5.32-.28-2.46-2.2-3.32-2-6-1.32-.34-2.18-1.67-2-3 1.49-.28 3.38.02 3 2 14.26 7.61 39.99-4.13 53.7-11.29 13.7-7.15 28.54-13.03 40.05-22.91S706.97 747.58 710 729c-3.05-1.21-.65-3.97 1-5 2.48 1.45-2.15 3.11 0 4 10.08-.84 17.6-12.11 24.7-19.3s14.29-15.72 18.3-24.7c-13.9-3.85-21.87 4.48-30 14m-93 83c-6.38 1.37-2.55-6.23 0 0m-97 21c-1.62 4.24-4.82-.89 0 0z" />
        <path id="BG" d="M848 715c2.2-10.5-5.25-9.17-13.3-15.69-8.06-6.53-14.1 2.53-3.78 6.77S839 712.8 848 715Z" />
        <path id="BH" d="M719 704c.34-.27 2.41-1.29 4.25-2.75 1.83-1.47 1.17-4.19.75-3.25l-5 6z" />
        <path id="BI"
            d="M180 715c-.18-11.22-14.9-17.07-22.9-12.9s-8.07 20.08-.84 24.64c7.22 4.56 15.97-11.37 23.74-11.74m-13-7c5.03 1.35.63 10.21-5.23 9.77-5.86-.43-3.14-12.02 5.23-9.77z" />
        <path id="BJ" d="M281 707s.52-.09 1 0c4-3.02 8.07 8.06 9 9 0-2.17-7.74-15.05-10-9Z" />
        <path id="BK"
            d="M282 707c3.56 1.33 9.45 5.74 7 10 1.61.02 3.01.22 4-1-.45-.15-1.75.25-2 0-.93-.94-5-12.02-9-9Z" />
        <path id="BL" d="M167 708c-8.37-2.25-11.09 9.34-5.23 9.77 5.86.44 10.26-8.42 5.23-9.77Z" />
        <path id="BM"
            d="M62 724c-.18-.9 0-2.08 0-3 0-1.2.29-2.84 0-4-.33-1.36-4.3-3.59-2-5-.5-1.62-3.67.57-3 2 4.47 1.58 3.77 6.83 5 10Z" />
        <path id="BN"
            d="M818 712c-9.57 2.99 1.5 8.7 3 13-9.22-3.46-20.01 2.95-12.03 9.03 7.99 6.07 9.47 6.2 17.03 11.97 3.01.16 4.09-3.61 4-6-3.82-.92-6.43-5.12-9-8 10.09 4.68 22.27-2.45 13.75-8.75-8.53-6.29-11.51-7.49-16.75-11.25Z" />
        <path id="BO"
            d="M62 724c.15.74 1.47 2.99 2 4 1.19 1.03 2.09 1.17 3 0-.52-4.63-3.75-3.53-5-7 0 .92-.18 2.1 0 3Z" />
        <path id="BP"
            d="M190 743c-7.64-3.02 2.92-9.67.3-15.3-2.61-5.63-8.94-1.72-12.6 2-3.67 3.72-10.64 4.57-11.69 11.29-1.06 6.72 10.29 1.29 12.99-.99-4.26 6.28-4.04 21.89 4.75 15.75s14.16-8 16.25-17.75c-3.87-1.68-10.82 1.2-10 5z" />
        <path id="BQ" d="M710 729c.03-.21.8-.98 1-1-2.15-.89 2.48-2.55 0-4-1.65 1.03-4.05 3.79-1 5Z" />
        <path id="BR" d="M67 728c-.91 1.17-1.81 1.03-3 0 .23.45-.36 2.89 2.91 1.92 3.27-.98.12-1.65.09-1.92Z" />
        <path id="BS" d="M916 739l-2 1c-.69 2.44 9.52 6.75 11 7 .03-.96.21-2.32 1-3-3.02.35-8.25-5.93-10-5z" />
        <path id="BT"
            d="M890 789c.2.05 3.09-.28 3 2-1.84 1.15-5.6 1.9-7 0-14 1.78-21.38 16.65-30.7 26.3-9.31 9.66-19.1 19.49-27.3 29.7 7.29 4.82 12.29 20.26 19.75 11.75 7.46-8.5 12.5-12.08 19.5-19.5 7-7.43 11.73-13.95 17.67-21.33 5.93-7.39 12.45-14.22 17.83-22.17 5.39-7.94 11.54-14.59 16-23 4.45-8.42 11.97-15.34 14.25-24.75-3.4-1.6-5.11-.51-8-1-1.48-.25-11.69-4.56-11-7-7.03 3.2-7.11 11.65-10.81 15.75-3.71 4.1-7.18 11.29-12.27 17.17-5.1 5.88-12.51 13.01-.92 16.08Z" />
        <path id="BU"
            d="M807 755c-.65-8.21-19.02-15.99-16.3-5.7s19.07 6.49 11.3 18.7c8.46 4.02 14.99-8.05 16-15-3.82 1.86-7.04.36-11 2z" />
        <path id="BV"
            d="M189 766c-1.55 9.52 6.19 8.79 11.75.75 5.56-8.03 14.05-.66 4 5-10.05 5.67-3.34 15.16 2.17 9.17 5.51-6 12.11-8.23 13.05-15.89.95-7.67-11.01-10.47-14.97-11.03-3.7 3.26-10.92 7.21-16 12Z" />
        <path id="BW" d="M345 767c.15-.53 1.78-1.54 2-2l2-7c-1.71-.04-.66.89-2 0-1.16.9-2.29 7.27-2 9z" />
        <path id="BX"
            d="M778 772c1.33-.57 3.05-1.59 5-1 .4 1.27-2.15 4.89-3 3-2.03 1.17-4.6 3.3-4 6 4.08.72 7.27 2.56 8.7 7.3s7.14 1.17 9.55-2.05c2.4-3.23 6.13-6.85 1-10.5s-12.1-16.21-18.5-12c-6.4 4.22-5.2 2.56-7.74 9.24s7.36.71 8.99.01z" />
        <path id="BY" d="M345 767c-1.04 3.62 1.62-.85 2-2-.22.46-1.85 1.47-2 2Z" />
        <path id="BZ" d="M778 772c3.53-.54 1.71 1.84 2 2 .85 1.89 3.4-1.73 3-3-1.95-.59-3.67.43-5 1Z" />
        <path id="Ba" d="M631 781c-2.55-6.23-6.38 1.37 0 0Z" />
        <path id="Bb"
            d="M240 788c1.8-5.83-4.39-10.88-7.75-4.75-3.37 6.12-7.11-1.29-11.25-1.25-1.03 4.44-3.08 10.06-10 8 .48 5.48 8.46 16.01 14.25 12.25 5.78-3.77 7.66-12.34 14.75-14.25Z" />
        <path id="Bc"
            d="M763 781c-5.34-.43-7.62 2.62-7 8-2.14-3.24-17.56 4.52-10.67 7.67s8.92-1.34 12.48 8.08c3.57 9.42 18.24 2.56 21.19-6.75-5.32-5.26-13.51-11.18-16-17m-1 20c3.06-13.43 13.16 7.24 0 0z" />
        <path id="Bd" d="M890 789c.7-.24.19 2.38-3 2 0 0-.5-.02-1 0 1.4 1.9 5.16 1.15 7 0 .09-2.28-2.8-1.95-3-2Z" />
        <path id="Be" d="M887 791c3.19.38 3.7-2.24 3-2-.62.98-2.11 1.5-3 2Z" />
        <path id="Bf" d="M96 793c.64.86 1.27 1.24 2 2-.06-.1-2.18-2.2-2-2Z" />
        <path id="Bg" d="M576 798c.03-.35.81-1.1 1-1 .38-1.98-1.51-2.28-3-2-.18 1.33.68 2.66 2 3Z" />
        <path id="Bh" d="M762 801c13.16 7.24 3.06-13.43 0 0Z" />
        <path id="Bi"
            d="M737 815c1.58.9-.98 5.71-3 6-.52-2.23 1.54-3.73 1-6-5.17-2.49-10.86-5.07-16-2 2.52 8.65 9.17 18.77 18 22 7.75-1.97-3.19-8.83-2-14 5.25 7.48 22.08 4.4 15.3-3.3s-6.84-15.3-17.3-16.7c-1.51 5.68 3.15 9.23 4 14z" />
        <path id="Bj" d="M534 802c-4.82-.89-1.62 4.24 0 0Z" />
        <path id="Bk" d="M489 812s.91-.19 1 0c1.41-1.17.71-3.49 1-5-.1-.52-1.72-2.44-2-3 .32 2.63-.24 5.36 0 8Z" />
        <path id="Bl"
            d="M258 828c-3.98 13.89 14.77 9.55 10 1s10.58-17.06 3.01-20.99-8.17 13.57-17.33 11.67c-9.16-1.91-7.54 14.05 4.32 8.32z" />
        <path id="Bm" d="M737 815c-.38-.21-1.61.21-2 0 .54 2.27-1.52 3.77-1 6 2.02-.29 4.58-5.1 3-6Z" />
        <path id="Bn" d="M140 819c-2.61 3.23-7.41 2.55-11 4 4.17 1.96 9.91 1.35 11-4Z" />
        <path id="Bo"
            d="M689 831c-1.55 6.26 7.68 11.01 11.77 13.23s9.39 9.98 14.48 5.02c5.08-4.97-2.31-11.76-1.26-18.24 1.06-6.48-6.04-16.25-8.06-5.08-2.03 11.17-10.1 3.16-16.93 5.07z" />
        <path id="Bp"
            d="M295 833c1.57-13.26-13.05-12.55-9 1-8.63 4.09-10.77 11.76-1.75 17.75 9.03 5.98 10.45-1.48 15.83-8.67s5.94-17.93-5.08-10.08m-5 8c2.93 1.62-.41 6.82-3.67 4.67-3.26-2.16 1.09-6.1 3.67-4.67z" />
        <path id="Bq"
            d="M321 848c-1.27-4.3-1.19-11.95-8-10 .4 10.25-8.25 24.88 2 32 7.1-5.98 8.3-6.78 16.25-13.75s-.16-11.53-10.25-8.25z" />
        <path id="Br" d="M290 841c-2.58-1.43-6.93 2.51-3.67 4.67 3.26 2.15 6.6-3.05 3.67-4.67Z" />
        <path id="Bs"
            d="M695 857c-10 1.31-11.49-2.77-14.75-11.25-3.25-8.48-13.61-2.27-6.55 4.55 7.05 6.82 2.67 11.74 1.3 18.7 7.33-.9 20.23-3 20-12Z" />
        <path id="Bt" d="M665 877c3.33-6.27-4.02-11.58-4.23-17.77S649.68 847.79 649 856c5.53 4.76 5.23 22.11 16 21z" />
        <path id="Bu"
            d="M261 912c-1.12 2.19-1.25 5.02-2 7-.58 1.52-1.61 3.09-2 5-.2.96-.9 2.48-1 3-.17.84-.07 2.14 0 3 5.76 12.25 20.23 15.54 32.31 21.69 12.07 6.16 24.19 10.43 36.67 15.34 12.47 4.9 27.47 9.8 40.95 13.04 13.47 3.24 22.38 6.53 35.05 8.95 12.66 2.42 29.6 5.05 43.02 6.98s35.26 4.81 48-1c11 5.79 28 2.46 41 3s26.63-2.59 38.99-4.01 25.25-4.83 37-7S632.3 981.7 643 978c10.7-3.71 19.88-5.13 30.26-9.74 10.37-4.62 17.79-5.85 26.82-10.18 9.04-4.32 17.35-9.13 26.67-13.33 9.33-4.19 17.73-10.8 27.25-13.75 2.94-4.41 12.1-7.78 17.71-12.29 5.6-4.52 12.76-8.01 18.21-11.79 5.44-3.78 12.41-9.95 18-14 5.6-4.04 12.58-9.53 18.08-13.92.69-.81 2.93-3.37 4-4 19.67-9.8-4.71-29.21-14.75-17.75-10.04 11.45-21.97 17.14-32.5 26.5-10.54 9.35-22.3 15.18-33.83 23.12-11.54 7.94-23.37 11.73-35.69 19.36S686.01 935.46 676 946c-6.12-5.26-14.1 1.16-14 7-3.96-6.91-14.8.44-23.32 2.68-8.53 2.23-19.53 5.6-28.46 7.54-8.92 1.95-20.23 4.72-29.21 5.79s-17.75 3.45-27.33 4.67-19.01 1.37-29.68 2.32-21.53 1.22-32 1c-1.48 2.87-1.27 6.21-3 9-2.44-3.3 1.26-11.11-4.97-10.97-6.24.13-3.66 6.18-9.03 6.97-2.43-11.54-20.72-6.92-30.98-9.02-10.25-2.11-19.79-3.47-30.35-4.65s-19.03-5.01-29.66-7.34c-10.64-2.33-18.57-3.91-27.79-7.21-9.22-3.31-18.5-6.11-26.54-9.44-8.04-3.34-14.93-5.39-23.6-9.42-8.68-4.02-17.84-8.04-25-12S267.26 918.37 261 912m496 7c-2.21 5.5-8.34 7.6-8 0 .35-7.61 8.19-6.29 8 0z" />
        <path id="Bv"
            d="M343 871c-1.16 1.98-.01.4-3 1-2.48.24-4.56 1.74-7 2 4.4 6.28 13.28 11.09 21 9-.32-4.24-4.5-6.88-5-11 .71-3.8 11.33-12.2 5.22-16.22S345.12 867.37 343 871Zm273 12c8.06 3.82 20.83 9.93 27.25.25 6.41-9.69.3-21.39-11.25-22.25-11.54-.85-15.14 12.83-16 22m17-16c2.34 4.13 9.01 12.66.99 13.99-8.02 1.34-9.91-7.79-5.99-12.99 2.52-.01 3.58 1.35 5-1Zm-265 14c-8.43 6.1-5.27 7.55 2.93 11.07 8.19 3.53 10.1-5.45 11.76-11.37 1.67-5.93 5.36-12.5-1.61-14.78-6.98-2.27-10.12-4.98-12.08 3.08 4.11-.09 3.24 1.76 6 5h-9c-.42 2.66.78 4.83 2 7Z" />
        <path id="Bw"
            d="M633 867c-1.42 2.35-2.48.99-5 1-3.92 5.2-2.03 14.33 5.99 12.99 8.02-1.33 1.35-9.86-.99-13.99Z" />
        <path id="Bx"
            d="M594 889c2.18 1.56 15.81 14.23 17 6 1.18-8.23-2.49-14.57-5.7-22.3-3.2-7.73-11.69 5.34-4.3 10.3-6.93-.67-9.6-11.73-18-9-.09 9.2 1.83 10.37 3.67 20.33s13 7.27 7.33-5.33z" />
        <path id="By" d="M340 872c2.99-.6 1.84.98 3-1-.83.71-2.45.83-3 1Z" />
        <path id="Bz"
            d="M409 886c.72-9.5-11.54-18.6-14.02-8.02-2.49 10.57-8.44 19.88 3.02 21.02 1.94-3.31.28-7.63 2-11 2.82 4.84 8.67 21.26 14.08 12.08 5.4-9.19 2.23-14.45 4.92-24.08-9.13-4.91-5.01 7.01-10 10Z" />
        <path id="CA" d="M826 879c1.48-1.18 2.62-2.73 4-4-1.07.63-3.31 3.19-4 4Z" />
        <path id="CB"
            d="M574 879c-4.75-3.33-10.21.76-10 6-7.16-2.97-19.04-4.82-13.77 3.77s4.72 11.99 10.55 17.45S574.41 896.5 567 893c6.74-.42 5.08-9.43 7-14m-8 13c-4.93 3.4-5.98-3.01 0 0z" />
        <path id="CC"
            d="M455 901c1.8-8.07-1.92-18.07-9.31-20.69-7.38-2.63-15.77 1.69-17.76 9.62-1.99 7.92.7 15.77 10.07 18.07s11.01-8.32 0-7c-5.62-4.14-.74-16.33 5.74-12.74 6.49 3.58-.06 16.08 11.26 12.74z" />
        <path id="CD"
            d="M474 893c-1.1-4.88-.92-10.4-8-10 .31 8.34-4.24 17.45.08 25.92 4.33 8.46 12.07-6.79 14.92-7.92-2.33 7.51 9.45 15.49 11.02 7.02 1.58-8.47 2.22-13 3.98-21.02-2.5-2.17-4.86-3.05-8-2 .61 2.91-.31 11.14-5 8 2.45-3.05-.16-10.68-4.25-8.25-4.08 2.44-1.89 6.3-4.75 8.25Z" />
        <path id="CE"
            d="M531 894c2.53 3.5.84 5.78 1 10-.2 1.87 1.62 3.06 1 5 2.42 1.28 4.32.22 7 1-2.33-8.39 4.78-22.45-5-27s-20.88 10.13-4 8c.38.73-.47 2.34 0 3z" />
        <path id="CF" d="M217 889c-6.03-.18-9.74 1.8-8 9 4.05-.9 6.87-5.29 8-9Z" />
        <path id="CG" d="M566 892c-5.98-3.01-4.93 3.4 0 0Z" />
        <path id="CH" d="M532 904c-.16-4.22 1.53-6.5-1-10 .95 2.93.23 6.97 1 10Z" />
        <path id="CI" d="M254 917c.43-1.2 3.84-2.97 5-3v5c.75-1.98.88-4.81 2-7 0 0-.52-.09-1 0-1.99.39-5.43 2.7-6 5Z" />
        <path id="CJ" d="M757 919c.19-6.29-7.65-7.61-8 0-.34 7.6 5.79 5.5 8 0Z" />
        <path id="CK"
            d="M254 917c-.37 1.47-.04 5.94 1 7 .2-.24 1.77.25 2 0 .39-1.91 1.42-3.48 2-5v-5c-1.16.03-4.57 1.8-5 3Z" />
        <path id="CL"
            d="M249 930c1.64.25 6.99-2.99 7-3 .1-.52.8-2.04 1-3-.23.25-1.8-.24-2 0-1.57 1.95-2.75 5.81-6 6Z" />
        <path id="CM" d="M249 930c2.91.6 5.05-2.41 7 0-.07-.86-.17-2.16 0-3-.01.01-5.36 3.25-7 3Z" />
    </defs>
    <g class="C" id="g2" transform="matrix(1.0555216,0,0,1.0555216,-47.765232,-27.755396)">
        <use href="#AO" fill-opacity="0.96" id="use1" />
    </g>
</svg>