<?xml version="1.0" encoding="UTF-8" standalone="no"?>
<svg
   version="1.1"
   id="Layer_1"
   x="0px"
   y="0px"
   viewBox="0 0 132 132"
   xml:space="preserve"
   sodipodi:docname="icon-default.svg"
   width="132"
   height="132"
   inkscape:version="1.3.2 (091e20e, 2023-11-25, custom)"
   xmlns:inkscape="http://www.inkscape.org/namespaces/inkscape"
   xmlns:sodipodi="http://sodipodi.sourceforge.net/DTD/sodipodi-0.dtd"
   xmlns="http://www.w3.org/2000/svg"
   xmlns:svg="http://www.w3.org/2000/svg"><defs
     id="defs1" /><sodipodi:namedview
     id="namedview1"
     pagecolor="#505050"
     bordercolor="#eeeeee"
     borderopacity="1"
     inkscape:showpageshadow="0"
     inkscape:pageopacity="0"
     inkscape:pagecheckerboard="0"
     inkscape:deskcolor="#505050"
     showgrid="false"
     inkscape:zoom="6.7560175"
     inkscape:cx="52.323725"
     inkscape:cy="46.403077"
     inkscape:window-width="2560"
     inkscape:window-height="1369"
     inkscape:window-x="1912"
     inkscape:window-y="-8"
     inkscape:window-maximized="1"
     inkscape:current-layer="Layer_1" /><style
     type="text/css"
     id="style1"><![CDATA[
	.st0{fill-rule:evenodd;clip-rule:evenodd;}
]]></style><g
     id="g1"
     transform="translate(4.4440486,4.4440486)"><path
       class="st0"
       d="M 92.45,8.98 C 91.1,8.04 89.57,7.63 88.01,7.94 86.45,8.25 85.13,9.09 84.19,10.4 l -5.27,7.43 C 77.05,17 75.1,16.37 73.02,15.85 70.94,15.33 68.99,14.91 66.91,14.6 L 65.24,4.88 C 64.94,3.21 64.1,2 62.88,1.06 61.53,0.12 60.1,-0.19 58.44,0.12 L 46.26,2.31 C 44.7,2.62 43.48,3.35 42.44,4.7 41.5,6.05 41.09,7.48 41.4,9.14 l 1.56,8.88 c -1.98,0.83 -3.82,1.77 -5.59,2.88 -1.77,1.04 -3.5,2.29 -5.07,3.5 l -8.26,-5.69 c -1.35,-0.94 -2.78,-1.35 -4.34,-1.04 -1.56,0.31 -2.88,1.15 -3.82,2.5 L 8.85,30.21 c -0.94,1.35 -1.35,2.88 -1.04,4.44 0.31,1.67 1.15,2.88 2.5,3.82 l 7.43,5.27 c -0.83,1.87 -1.46,3.82 -1.98,5.9 -0.52,2.08 -0.94,4.03 -1.25,6.11 L 4.8,57.42 c -8.24,1.55 -3.58,13.36 -2.57,18.98 0.31,1.56 1.04,2.78 2.36,3.82 1.35,0.94 2.78,1.35 4.44,1.04 l 8.88,-1.56 c 0.83,1.98 1.77,3.82 2.88,5.59 1.04,1.77 2.29,3.5 3.5,5.17 l -5.69,8.16 c -0.94,1.35 -1.35,2.78 -1.04,4.34 0.31,1.56 1.14,2.88 2.46,3.82 l 10.13,7.11 c 1.35,0.94 2.88,1.25 4.44,0.94 1.56,-0.31 2.88,-1.04 3.92,-2.36 l 5.28,-7.53 c 1.87,0.83 3.82,1.46 5.9,1.98 2.08,0.52 4.02,0.94 6.11,1.25 l 1.67,9.72 c 0.31,1.67 1.15,2.88 2.36,3.82 1.35,0.94 2.78,1.25 4.44,0.94 l 12.18,-2.19 c 1.56,-0.31 2.78,-1.04 3.82,-2.36 0.94,-1.35 1.35,-2.78 1.04,-4.44 l -1.56,-8.88 c 1.98,-0.83 3.82,-1.77 5.59,-2.88 1.77,-1.04 3.51,-2.26 5.17,-3.5 l 8.16,5.69 c 1.35,0.94 2.78,1.35 4.44,1.04 1.67,-0.31 2.88,-1.15 3.82,-2.46 l 7.11,-10.14 c 0.94,-1.35 1.25,-2.88 0.94,-4.44 -0.31,-1.56 -1.04,-2.88 -2.39,-3.92 L 105.05,79 c 0.83,-1.87 1.46,-3.82 1.98,-5.9 0.52,-2.08 0.94,-4.03 1.25,-6.11 L 118,65.32 c 1.67,-0.31 2.88,-1.15 3.82,-2.39 0.94,-1.35 1.25,-2.78 0.94,-4.44 l -2.19,-12.18 c -0.31,-1.56 -1.04,-2.78 -2.36,-3.82 -1.35,-0.94 -2.78,-1.35 -4.44,-1.04 l -8.88,1.56 c -0.83,-1.87 -1.77,-3.71 -2.88,-5.59 -1.04,-1.87 -2.29,-3.5 -3.5,-5.07 l 5.69,-8.26 c 0.94,-1.35 1.35,-2.78 1.04,-4.34 -0.31,-1.56 -1.15,-2.88 -2.46,-3.82 L 92.73,8.87 Z m -43.33,43.11 8.67,8.25 14.93,-15.16 c 1.48,-1.5 2.4,-2.71 4.23,-0.83 l 5.91,6.05 c 1.95,1.92 1.84,3.04 0.01,4.82 l -21.7,21.3 c -3.86,3.78 -3.18,4.01 -7.1,0.13 l -14.9,-14.8 c -0.81,-0.88 -0.73,-1.77 0.16,-2.66 l 6.86,-7.12 c 1.03,-1.07 1.86,-1 2.93,0.02 z M 61.44,23.68 c 20.82,0 37.71,16.88 37.71,37.71 0,20.82 -16.88,37.71 -37.71,37.71 -20.83,0 -37.71,-16.89 -37.71,-37.72 0,-20.82 16.89,-37.7 37.71,-37.7 z"
       id="path1" /></g></svg>
