<?xml version="1.0" encoding="UTF-8"?>
<svg viewBox="0 0 25.58 24.59" xmlns="http://www.w3.org/2000/svg">
    <g>
        <path
            d="M23.23 16.1h-1.17c-.36 0-.64-.29-.64-.64s.29-.64.64-.64h1.17c.36 0 .64.29.64.64s-.29.64-.64.64m0 2.85h-1.17c-.36 0-.64-.29-.64-.64s.29-.64.64-.64h1.17c.36 0 .64.29.64.64s-.29.64-.64.64m0 2.85h-1.17c-.36 0-.64-.29-.64-.64-.01-.18.12-.41.29-.53.1-.07.22-.12.35-.12h1.17c.09 0 .25.05.35.12.16.07.29.3.29.53 0 .36-.29.64-.64.64m-3.88-5.71h-8.66c-.36 0-.64-.29-.64-.64s.29-.64.64-.64h8.66c.36 0 .64.29.64.64s-.29.64-.64.64m0 2.85h-8.66c-.36 0-.64-.29-.64-.64s.29-.64.64-.64h8.66c.36 0 .64.29.64.64s-.29.64-.64.64m0 2.85h-8.66c-.36 0-.64-.29-.64-.64-.01-.18.12-.41.29-.53.1-.07.22-.12.35-.12h8.66c.09 0 .25.05.35.12.16.07.29.3.29.53 0 .36-.29.64-.64.64m5.09-9.94H7.58c.22.39.36.83.36 1.3V23.3c0 .69.56 1.26 1.26 1.26h15.11c.69 0 1.26-.56 1.26-1.26V12.99c0-.63-.51-1.14-1.14-1.14" />
        <path
            d="M6.3 3.13a1.257 1.257 0 012.48.4 1.257 1.257 0 01-2.48-.4m6.4-.59c.12.09.22.32.23.52 0 .2-.07.38-.21.53l-4.89 5.1c-.13.16-.42.25-.65.22-.1 0-.28-.09-.39-.2-.12-.09-.22-.32-.23-.52 0-.2.07-.38.21-.53l4.89-5.1a.74.74 0 011.04-.02m.49 5.63a1.257 1.257 0 11-2.481-.402 1.257 1.257 0 012.481.402m-7.96 2.35h12.62c.75 0 1.35-.61 1.35-1.35V1.12C19.2.5 18.65 0 17.98 0H1.24C.57 0 .02.5.02 1.12V17.3H0v.39c-.03.41.28.92.69 1.14a1.297 1.297 0 001.92-1.14v-1.87l.03-2.64c0-1.44 1.16-2.61 2.59-2.64z" />
        <path
            d="M6.59 13.56v-.38c0-.72-.59-1.3-1.3-1.3s-1.3.59-1.3 1.3v1.87l-.03 2.65c0 .59-.2 1.13-.53 1.57h2.13c.58 0 1.05-.47 1.05-1.05v-4.36h-.02v-.29z" />
    </g>
</svg>