<?xml version="1.0" encoding="UTF-8" standalone="no"?>
<svg
   width="685.25"
   height="333.05212"
   version="1.1"
   id="svg336"
   sodipodi:docname="icon-imf-text.svg"
   inkscape:version="1.3.2 (091e20e, 2023-11-25, custom)"
   xmlns:inkscape="http://www.inkscape.org/namespaces/inkscape"
   xmlns:sodipodi="http://sodipodi.sourceforge.net/DTD/sodipodi-0.dtd"
   xmlns="http://www.w3.org/2000/svg"
   xmlns:svg="http://www.w3.org/2000/svg">
  <sodipodi:namedview
     id="namedview336"
     pagecolor="#505050"
     bordercolor="#eeeeee"
     borderopacity="1"
     inkscape:showpageshadow="0"
     inkscape:pageopacity="0"
     inkscape:pagecheckerboard="0"
     inkscape:deskcolor="#505050"
     inkscape:zoom="2.1281785"
     inkscape:cx="316.46782"
     inkscape:cy="143.0801"
     inkscape:window-width="2560"
     inkscape:window-height="1369"
     inkscape:window-x="1912"
     inkscape:window-y="-8"
     inkscape:window-maximized="1"
     inkscape:current-layer="svg336" />
  <style
     id="style1"><![CDATA[
        .C,
        .E,
        .O {
            fill: #010101
        }

        .B,
        .F,
        .D,
        .M {
            stroke: #000
        }

        .G {
            stroke-opacity: .82
        }

        .H {
            fill-opacity: .82
        }

        .I {
            stroke-opacity: .8
        }

        .J {
            fill-opacity: .8
        }

        .K {
            stroke-opacity: .79
        }

        .L {
            fill-opacity: .79
        }

        .N {
            stroke-opacity: .53
        }

        .P {
            fill-opacity: .53
        }

        .Q {
            stroke-opacity: .45
        }

        .R {
            stroke-opacity: .02
        }

        .S {
            stroke-opacity: .78
        }

        .T {
            stroke-opacity: .36
        }

        .U {
            stroke-opacity: .55
        }

        .V {
            stroke-opacity: .49
        }

        .W {
            fill-opacity: .45
        }

        .X {
            fill-opacity: .02
        }

        .Y {
            fill-opacity: .78
        }

        .Z {
            fill-opacity: .36
        }

        .a {
            fill-opacity: .55
        }

        .b {
            fill-opacity: .49
        }

        .c {
            stroke-opacity: .06
        }

        .d {
            stroke-opacity: .35
        }

        .e {
            stroke-opacity: .77
        }

        .f {
            stroke-opacity: .04
        }

        .g {
            stroke-opacity: .43
        }

        .h {
            stroke-opacity: .62
        }

        .i {
            stroke-opacity: .81
        }

        .j {
            stroke-opacity: .84
        }

        .k {
            stroke-opacity: .32
        }

        .l {
            stroke-opacity: .52
        }

        .m {
            stroke-opacity: .56
        }

        .n {
            stroke-opacity: .61
        }

        .o {
            stroke-opacity: .4
        }

        .p {
            fill-opacity: .06
        }

        .q {
            fill-opacity: .35
        }

        .r {
            fill-opacity: .77
        }

        .s {
            fill-opacity: .04
        }

        .t {
            fill-opacity: .43
        }

        .u {
            fill-opacity: .62
        }

        .v {
            fill-opacity: .81
        }

        .w {
            fill-opacity: .84
        }

        .x {
            fill-opacity: .32
        }

        .y {
            fill-opacity: .52
        }

        .z {
            fill-opacity: .56
        }

        .AA {
            fill-opacity: .61
        }

        .AB {
            fill-opacity: .4
        }

        .AC {
            stroke-opacity: .2
        }

        .AD {
            stroke-opacity: .08
        }

        .AE {
            stroke-opacity: .51
        }

        .AF {
            stroke-opacity: .28
        }

        .AG {
            stroke-opacity: .5
        }

        .AH {
            stroke-opacity: .13
        }

        .AI {
            stroke-opacity: .15
        }

        .AJ {
            stroke-opacity: .6
        }

        .AK {
            stroke-opacity: .59
        }

        .AL {
            stroke-opacity: .46
        }

        .AM {
            stroke-opacity: .88
        }

        .AN {
            stroke-opacity: .54
        }

        .AO {
            stroke-opacity: .27
        }

        .AP {
            stroke-opacity: .76
        }

        .AQ {
            stroke-opacity: .64
        }

        .AR {
            stroke-opacity: .96
        }

        .AS {
            stroke-opacity: .39
        }

        .AT {
            stroke-opacity: .67
        }

        .AU {
            stroke-opacity: .68
        }

        .AV {
            stroke-opacity: .47
        }

        .AW {
            stroke-opacity: .23
        }

        .AX {
            stroke-opacity: .05
        }

        .AY {
            stroke-opacity: .83
        }
        ]]></style>
  <g
     class="C"
     id="g235"
     transform="translate(-159.95455,-333.34007)">
    <use
       href="#AO"
       fill-opacity="0.96"
       id="use234" />
    <use
       href="#AP"
       fill-opacity="0.95"
       id="use235" />
  </g>
  <use
     href="#AU"
     fill-opacity="0.96"
     class="C"
     id="use240"
     transform="translate(-159.95455,-333.34007)" />
  <use
     href="#AV"
     class="O P"
     id="use241"
     transform="translate(-159.95455,-333.34007)" />
  <g
     class="C"
     id="g252"
     transform="translate(-159.95455,-333.34007)">
    <use
       href="#Af"
       fill-opacity="0.68"
       id="use251" />
    <use
       href="#Ag"
       fill-opacity="0.28"
       id="use252" />
  </g>
  <use
     href="#Al"
     fill-opacity="0.47"
     class="E"
     id="use257"
     transform="translate(-159.95455,-333.34007)" />
  <use
     href="#An"
     class="E a"
     id="use259"
     transform="translate(-159.95455,-333.34007)" />
  <use
     href="#As"
     class="C Z"
     id="use264"
     transform="translate(-159.95455,-333.34007)" />
  <g
     class="E"
     id="g266"
     transform="translate(-159.95455,-333.34007)">
    <use
       href="#At"
       fill-opacity="0.64"
       id="use265" />
    <use
       href="#Au"
       fill-opacity="0.67"
       id="use266" />
  </g>
  <use
     href="#Aw"
     fill-opacity="0.11"
     id="use268"
     transform="translate(-159.95455,-333.34007)" />
  <use
     href="#Ay"
     fill-opacity="0.68"
     id="use270"
     transform="translate(-159.95455,-333.34007)" />
  <defs
     id="defs336">
    <path
       id="AO"
       d="m 262,655 c 3.88,-2.8 -0.09,-13.06 1,-18 1.09,-4.94 -0.47,-13.16 0,-19 0.47,-5.84 -0.22,-13.81 0,-20 0.22,-6.19 -0.1,-12.63 0,-19 0.1,-6.37 -0.04,-13.56 0,-20 v -19 -20 -19 -19 -20 -19 -20 c -0.13,-6.43 0.31,-12.66 0,-19 -0.31,-6.34 0.65,-13.86 0,-20 -0.65,-6.14 1.51,-13.34 0,-19 -1.51,-5.66 2.79,-14.62 1,-19 -3.95,-5.59 -18.39,-0.36 -26,-1 -7.61,-0.64 -20.97,-0.86 -29,0 -8.03,0.86 -19.63,-3.23 -26.97,-0.97 -7.35,2.26 -1.74,16.48 -3.03,23.97 -1.29,7.49 0.56,19.37 0,28 -0.56,8.63 0.26,19.91 0,29 -0.26,9.09 0.1,18.68 0,28 v 29 28 29 28 c 0.28,9.24 -0.62,20.05 0,29 0.62,8.95 -1.42,19.76 0,28 1.42,8.24 -3.15,21.99 0.23,28.77 3.39,6.77 18.47,1.21 25.77,2.23 7.3,1.02 21.1,0.56 29,0 7.9,-0.56 20.58,2.71 28,0 z" />
    <path
       id="AP"
       d="m 302,382 c 0.08,1.78 0.25,2.1 0,4 0,1.78 2.83,4.36 -1,5 -0.99,2.79 -1.29,5.91 -1,9 2.27,0.72 2.06,3.04 2,5 -2.53,0.63 -1.9,-2.53 -2,-4 -3.76,5.08 -2.58,22.26 -2,29 0.14,1.57 2.22,3.27 0,5 -0.05,0.15 -1,0 -1,0 -1.93,22.33 -6,44.2 -6,65 0.08,0.49 3.3,3.5 1,6 -1.39,-0.26 -0.78,-2.05 -1,-3 -3.68,16.78 -2.64,36.64 -5.01,53.99 -2.36,17.36 -4.95,35.43 -4.99,53.01 0.01,0.1 1.92,0.29 1.96,2.04 0.04,1.74 -1.9,1.59 -1.96,1.96 0,9.97 -0.69,16.46 -2.67,26.33 -1.98,9.87 0.65,16.31 11.67,14.67 11.02,-1.64 17.62,0.32 28,0 10.38,-0.32 18.65,-0.66 29,0 10.35,0.66 17.57,-0.13 17.22,-10.78 -0.35,-10.65 1.93,-15.75 2.78,-24.22 0.85,-8.47 0.16,-16.96 1,-25 0.84,-8.03 1.64,-16.84 2.21,-24.77 0.58,-7.93 1.79,-15.55 1.79,-24.23 -0.16,-1.82 -0.4,-3.09 0,-5 2.59,-7.03 -0.66,-17.18 3,-24 8.62,22.11 15.81,45.13 23.68,67.32 L 422,650 c -2.9,-4.24 5.43,3.84 2,3 13.8,4.08 26,-2 41,1 15,3 14.98,-11.47 17.75,-21.25 2.76,-9.79 9.11,-20.06 12.06,-29.5 2.94,-9.45 4.81,-17.58 8.42,-27.02 3.61,-9.44 7.28,-19.92 10.45,-29.55 3.17,-9.63 8.45,-19.99 9.32,-29.68 2.94,8.23 4.39,19.77 4.67,30.33 0.28,10.56 1.41,22.16 2.33,32.67 l 3,32 c 1.26,10.35 1.3,21.71 2,32 0.01,0.06 1,0 1,0 2.49,2.41 -0.44,6.22 0,8 3.37,6.52 20.26,2.47 28,3 7.74,0.53 23.31,0.73 31,0 7.69,-0.73 25.26,4.29 27,-4 1.74,-8.29 -3.28,-19.32 -3,-28 0.28,-8.68 -1.82,-20.29 -2.07,-28.92 -0.25,-8.63 -2.41,-15.04 -2.93,-24.08 -0.52,-9.04 -1.09,-19.41 -2,-28 0.08,0.19 -0.8,0.93 -1.92,-1.09 -1.12,-2.02 1.91,-3.81 1.92,-3.91 -1.41,-27.59 -3.59,-57.14 -8,-84 -3.44,-0.58 -1.46,-3.16 -1,-5 0.05,-1.22 0.93,-2.41 1,-3 -0.91,-10.68 -2.63,-21.64 -3.67,-32.33 -1.04,-10.69 -1.48,-22.26 -3.33,-32.67 -1.85,-10.41 2.18,-23.42 -2,-33 -6.89,-1.69 -14.71,-1 -22,-1 -7.64,0 -16.48,-0.78 -24,0 -7.52,0.78 -17.6,-1.13 -21,-2 -8.99,0 -18.99,-3.08 -22,6 -0.21,1.06 -1.06,3.1 -1,3 -10.66,24.29 -18.94,47.95 -27.69,70.31 -8.76,22.35 -18.98,50.2 -26.31,70.69 -12.54,-27.04 -25.03,-56.59 -35,-85 -0.17,-0.26 -0.73,-1.69 -1,-3 -6.21,-18.75 -14.18,-44.73 -23,-59 0.05,-0.61 -10.37,-1.4 -14,-1 -3.63,0.4 -12.3,-0.37 -17,0 -4.7,0.37 -11.88,-0.58 -17,0 -5.12,0.58 -11.82,-1.18 -17,0 -5.18,1.18 -12.13,-1.71 -15,-2 -10.95,1.22 -6.42,9.07 -8.07,16.93 -1.65,7.85 -0.97,13.85 -1.93,21.07 m 211,-37 c -3.99,2.79 -6.19,-1.1 0,0 z" />
    <path
       id="AQ"
       d="m 392,347 c -3.95,-6.39 -16.99,-2.26 -25,-3 -8.01,-0.74 -19.52,-0.04 -28,0 -8.48,0.04 -18.5,-0.95 -27,0 2.87,0.29 9.82,3.18 15,2 5.18,-1.18 11.88,0.58 17,0 5.12,-0.58 12.3,0.37 17,0 4.7,-0.37 13.37,0.4 17,0 3.63,-0.4 14.05,0.39 14,1 z" />
    <path
       id="AR"
       d="m 573,346 c -0.19,-0.08 0.19,-1.92 0,-2 h -45 c 3.4,0.87 13.48,2.78 21,2 7.52,-0.78 16.36,0 24,0 z" />
    <path
       id="AS"
       d="m 573,346 c 7.29,0 15.11,-0.69 22,1 -2.47,-5.65 -16.74,-3 -22,-3 0.19,0.08 -0.19,1.92 0,2 z" />
    <path
       id="AU"
       d="m 635,654 c 0.35,0.23 1.5,0 2,0 8.61,0 18.52,0.53 27,0 8.48,-0.53 19,1.41 27,0 8,-1.41 20.85,3.55 27,-1 -0.62,-6.85 -0.08,-14.93 1,-21 0.09,-1.58 0.83,-3.03 1,-4 v -89 c 6.96,0.63 14.75,-0.4 21,-1 -2.33,-0.05 -4.67,0.04 -7,0 22.34,-1.67 47.35,-1.66 70,0 1.97,0.19 7.26,0.86 9,0 v -77 c -8.2,-4.05 -20.61,0.16 -30,-1 -9.39,-1.16 -21.2,0.1 -31,0 -9.8,-0.1 -21.16,-0.9 -31,0 0.24,0.32 0,1 0,1 h 5 c -10.5,5.66 -8.46,-10.5 -8,-17 0.46,-6.5 -2.44,-20.06 3,-22 11.39,-0.39 24.82,0.53 36,0 11.18,-0.53 25.57,1.01 36,0 10.43,-1.01 28.51,5.12 29,-7 0.49,-12.12 -0.06,-24.06 0,-36 0.06,-11.94 0.77,-23.57 -1,-35 -13.54,4 -30.64,1.53 -46,2 -15.36,0.47 -31.54,-0.13 -47,0 h -47 c -15.44,-0.11 -31.02,0.89 -46,-1 -1.98,6.86 -0.75,14.69 -1,22 -0.25,7.31 0.11,14.66 0,22 v 22 22 23 22 22 22 22 23 c 0.11,7.28 -0.26,14.98 0,22 0.26,7.02 -0.57,15.44 0,22 0.57,6.56 -1.27,16.42 0,22 1.27,5.58 -3.29,18.21 1,21 z" />
    <path
       id="AV"
       d="m 513,345 c -6.19,-1.1 -3.99,2.79 0,0 z" />
    <path
       id="AW"
       d="m 262,655 c 7.21,-2.63 1.68,-18.82 3,-26 1.32,-7.18 -0.57,-19.51 0,-28 0.57,-8.49 -0.26,-19.97 0,-29 0.26,-9.03 -0.11,-18.71 0,-28 v -29 -28 -29 -28 c -0.28,-9.27 0.61,-19.98 0,-29 -0.61,-9.02 1.41,-19.61 0,-28 -1.41,-8.39 3.61,-20.48 -1,-27 1.79,4.38 -2.51,13.34 -1,19 1.51,5.66 -0.65,12.86 0,19 0.65,6.14 -0.31,13.66 0,20 0.31,6.34 -0.13,12.57 0,19 0.13,6.43 -0.06,13.53 0,20 v 19 20 19 19 20 19 20 c -0.1,6.37 0.22,12.81 0,19 -0.22,6.19 0.47,14.16 0,20 -0.47,5.84 1.09,14.06 0,19 -1.09,4.94 2.88,15.2 -1,18 z" />
    <path
       id="AX"
       d="m 505,353 c -0.06,0.1 0.79,-1.94 1,-3 z" />
    <path
       id="Ac"
       d="m 416,409 -1,-3 c 0.27,1.31 0.83,2.74 1,3 z" />
    <path
       id="Af"
       d="m 721,461 c -4.46,-0.95 -0.97,-10.43 -2,-14 -1.03,-3.57 0.7,-11.86 1,-15 0,-2.43 -1.05,-8.57 1,-10 -5.44,1.94 -2.54,15.5 -3,22 -0.46,6.5 -2.5,22.66 8,17 -1.67,-0.01 -3.33,0.01 -5,0 z" />
    <path
       id="Ag"
       d="m 297,435 c 0,0 0.95,0.15 1,0 0.51,-1.49 -0.39,-3.47 0,-5 -0.16,1.12 -0.85,3.26 -1,5 z" />
    <path
       id="Ah"
       d="m 298,435 c 2.22,-1.73 0.14,-3.43 0,-5 -0.39,1.53 0.51,3.51 0,5 z" />
    <path
       id="Ai"
       d="m 721,461 c 0,0 0.24,-0.68 0,-1 -3.76,-5.08 -1,-21.28 -1,-28 -0.3,3.14 -2.03,11.43 -1,15 1.03,3.57 -2.46,13.05 2,14 z" />
    <path
       id="Al"
       d="m 813,538 c 5.21,-2.58 1.38,-19.08 2,-25 0.62,-5.92 0.62,-21.09 0,-27 -0.62,-5.91 3.22,-22.42 -2,-25 z" />
    <path
       id="An"
       d="m 291,503 c 0.22,0.95 -0.39,2.74 1,3 2.3,-2.5 -0.92,-5.51 -1,-6 0,0.91 0.19,2.12 0,3 z" />
    <path
       id="Ar"
       d="m 612,542 c -0.17,-1.64 0.08,-3.35 0,-5 -0.01,0.1 -3.04,1.89 -1.92,3.91 1.12,2.02 2,1.28 1.92,1.09 z" />
    <path
       id="As"
       d="m 741,538 c 20.75,0.41 42.65,1.97 63,0 -22.65,-1.66 -47.66,-1.67 -70,0 2.33,0.04 4.67,-0.05 7,0 z" />
    <path
       id="At"
       d="m 372,546 c 0,-1.63 -0.17,-3.38 0,-5 -0.4,1.91 -0.16,3.18 0,5 z" />
    <path
       id="Au"
       d="m 22,559 c -0.12,-0.03 -0.11,-1.53 0,-2 1.01,-2.11 -3.76,6.2 0,2 z" />
    <path
       id="Av"
       d="m 281,614 c 0.06,-0.37 2,-0.22 1.96,-1.96 -0.04,-1.75 -1.95,-1.94 -1.96,-2.04 z" />
    <path
       id="Aw"
       d="m 719,632 c -0.4,6.96 0.63,14.06 0,21 -0.23,4.06 -14.15,1.55 -19,2 -4.85,0.45 -15.05,-0.04 -21,0 -5.95,0.04 -14.65,0.35 -21,0 -6.35,-0.35 -15.46,1.36 -21,-1 -0.5,0 -1.65,0.23 -2,0 -0.15,3.1 9.52,1.88 13,2 3.49,0.12 8.42,0.02 14,0 5.58,-0.02 7.26,0.15 15,0 7.74,-0.15 20.3,0.23 28,0 7.7,-0.23 9.57,1.62 14.22,-0.78 4.65,-2.4 -0.52,-9.58 0.78,-13.22 1.3,-3.64 0,-10.1 0,-14 -0.17,0.97 -0.91,2.42 -1,4 z" />
    <path
       id="Ay"
       d="m 718,653 c 0.32,-0.24 1,0 1,0 0.63,-6.94 -0.4,-14.04 0,-21 -1.08,6.07 -1.62,14.15 -1,21 z" />
    <path
       id="Az"
       d="m 536,652 c -0.18,-2.65 0.24,-5.36 0,-8 0,0 -0.99,0.06 -1,0 0.2,2.99 -0.25,5.58 1,8 z" />
    <path
       id="BA"
       d="m 536,652 c -0.44,-1.78 2.49,-5.59 0,-8 0.24,2.64 -0.18,5.35 0,8 z" />
    <path
       id="BB"
       d="m 422,650 c 0.65,1.69 0.34,1.95 2,3 3.43,0.84 -4.9,-7.24 -2,-3 z" />
  </defs>
</svg>
