<?xml version="1.0" encoding="UTF-8"?>
<svg fill="#000000" height="200px" width="200px" version="1.1" id="Capa_1" viewBox="0 0 27.963 27.963"
    xml:space="preserve" xmlns="http://www.w3.org/2000/svg" xmlns:svg="http://www.w3.org/2000/svg">
    <defs id="defs2" />
    <g id="g2">
        <g id="c129_exclamation">
            <path
                d="M13.983,0C6.261,0,0.001,6.259,0.001,13.979c0,7.724,6.26,13.984,13.982,13.984s13.98-6.261,13.98-13.984    C27.963,6.259,21.705,0,13.983,0z M13.983,26.531c-6.933,0-12.55-5.62-12.55-12.553c0-6.93,5.617-12.548,12.55-12.548    c6.931,0,12.549,5.618,12.549,12.548C26.531,20.911,20.913,26.531,13.983,26.531z"
                id="path1" />
            <polygon points="12.414,17.158 15.579,17.158 16.191,4.579 11.804,4.579 " id="polygon1"
                transform="matrix(1.1690658,0,0,1,-2.3664987,-0.139815)" />
            <path
                d="m 13.998,18.755721 c -1.471,0 -2.5,1.029 -2.5,2.526 0,1.443 0.999,2.528 2.444,2.528 h 0.056 c 1.499,0 2.469,-1.085 2.469,-2.528 -0.026,-1.497 -0.999,-2.526 -2.469,-2.526 z"
                id="path2" />
        </g>
        <g id="Capa_1_207_">
        </g>
    </g>
</svg>